<svg width="24" height="24" viewBox="0 0 24 24" fill="none" xmlns="http://www.w3.org/2000/svg">
<rect width="24" height="24" rx="5" fill="#2F80ED" fill-opacity="0.15"/>
<path d="M14.0002 19.1668H10.0002C6.38016 19.1668 4.8335 17.6202 4.8335 14.0002V10.0002C4.8335 6.38016 6.38016 4.8335 10.0002 4.8335H14.0002C17.6202 4.8335 19.1668 6.38016 19.1668 10.0002V14.0002C19.1668 17.6202 17.6202 19.1668 14.0002 19.1668ZM10.0002 5.8335C6.92683 5.8335 5.8335 6.92683 5.8335 10.0002V14.0002C5.8335 17.0735 6.92683 18.1668 10.0002 18.1668H14.0002C17.0735 18.1668 18.1668 17.0735 18.1668 14.0002V10.0002C18.1668 6.92683 17.0735 5.8335 14.0002 5.8335H10.0002Z" fill="#59A0FF"/>
<path d="M13.3332 15.8332H10.6665C9.2865 15.8332 8.1665 14.7132 8.1665 13.3332V10.6665C8.1665 9.2865 9.2865 8.1665 10.6665 8.1665H13.3332C14.7132 8.1665 15.8332 9.2865 15.8332 10.6665V13.3332C15.8332 14.7132 14.7132 15.8332 13.3332 15.8332ZM10.6665 9.1665C9.83984 9.1665 9.1665 9.83984 9.1665 10.6665V13.3332C9.1665 14.1598 9.83984 14.8332 10.6665 14.8332H13.3332C14.1598 14.8332 14.8332 14.1598 14.8332 13.3332V10.6665C14.8332 9.83984 14.1598 9.1665 13.3332 9.1665H10.6665Z" fill="#59A0FF"/>
<path d="M12 15.8332C11.7267 15.8332 11.5 15.6065 11.5 15.3332V8.6665C11.5 8.39317 11.7267 8.1665 12 8.1665C12.2733 8.1665 12.5 8.39317 12.5 8.6665V15.3332C12.5 15.6065 12.2733 15.8332 12 15.8332Z" fill="#59A0FF"/>
<path d="M15.3332 12.5H8.6665C8.39317 12.5 8.1665 12.2733 8.1665 12C8.1665 11.7267 8.39317 11.5 8.6665 11.5H15.3332C15.6065 11.5 15.8332 11.7267 15.8332 12C15.8332 12.2733 15.6065 12.5 15.3332 12.5Z" fill="#59A0FF"/>
</svg>
