<svg width="24" height="24" viewBox="0 0 24 24" fill="none" xmlns="http://www.w3.org/2000/svg">
<rect width="24" height="24" rx="5" fill="#E6F6F8"/>
<path d="M13.717 18.75H6.48175C6.22159 18.7499 5.97211 18.6465 5.78806 18.4626C5.604 18.2788 5.5004 18.0294 5.5 17.7692V6.23148C5.50046 5.97136 5.60408 5.72204 5.78813 5.53822C5.97218 5.35441 6.22163 5.25111 6.48175 5.25098H11.7295L14.699 8.25423V17.7702C14.6983 18.0302 14.5945 18.2794 14.4104 18.463C14.2264 18.6467 13.977 18.7499 13.717 18.75ZM6.48175 5.67249C6.33373 5.67255 6.19179 5.73134 6.08708 5.83595C5.98237 5.94057 5.92345 6.08247 5.92325 6.23048V17.7695C5.92345 17.9175 5.98237 18.0594 6.08708 18.164C6.19179 18.2686 6.33373 18.3274 6.48175 18.3275H13.717C13.865 18.3274 14.007 18.2686 14.1117 18.164C14.2164 18.0594 14.2753 17.9175 14.2755 17.7695V8.42697L11.5522 5.67249H6.48175Z" fill="#5439AC"/>
<path d="M7.89111 10.6426H12.5865C12.7192 10.6426 12.8464 10.6953 12.9402 10.789C13.034 10.8828 13.0865 11.01 13.0865 11.1426V16.3733C13.0865 16.5059 13.034 16.6331 12.9402 16.7269C12.8464 16.8206 12.7192 16.8733 12.5865 16.8733H7.89111C7.75851 16.8733 7.63137 16.8206 7.5376 16.7269C7.44383 16.6331 7.39111 16.5059 7.39111 16.3733V11.1426C7.39111 11.01 7.44383 10.8828 7.5376 10.789C7.63137 10.6953 7.75851 10.6426 7.89111 10.6426Z" fill="#57C5D0"/>
<path d="M12.6536 17.0887H7.82382C7.65222 17.0894 7.48739 17.0219 7.36551 16.9011C7.24363 16.7803 7.17469 16.6161 7.17383 16.4445V11.073C7.17469 10.9014 7.24363 10.7371 7.36551 10.6163C7.48739 10.4955 7.65222 10.4281 7.82382 10.4287H12.6536C12.8252 10.4281 12.99 10.4955 13.1119 10.6163C13.2338 10.7371 13.3027 10.9014 13.3036 11.073V16.4447C13.3026 16.6163 13.2337 16.7804 13.1118 16.9012C12.9899 17.0219 12.8251 17.0894 12.6536 17.0887ZM7.82382 10.8582C7.76666 10.8581 7.71178 10.8806 7.6712 10.9209C7.63062 10.9611 7.60765 11.0158 7.60732 11.073V16.4447C7.60765 16.5019 7.63062 16.5566 7.6712 16.5968C7.71178 16.6371 7.76666 16.6596 7.82382 16.6595H12.6536C12.7107 16.6596 12.7656 16.6371 12.8062 16.5968C12.8468 16.5566 12.8697 16.5019 12.8701 16.4447V11.073C12.8697 11.0158 12.8468 10.9611 12.8062 10.9209C12.7656 10.8806 12.7107 10.8581 12.6536 10.8582H7.82382Z" fill="#5439AC"/>
<path d="M12.9822 13.0495H11.6162C11.3461 13.0549 11.0849 12.9531 10.8898 12.7663C10.6947 12.5795 10.5816 12.323 10.5752 12.053V10.758C10.5771 10.7019 10.6007 10.6487 10.6411 10.6097C10.6815 10.5706 10.7354 10.5488 10.7916 10.5488C10.8477 10.5488 10.9017 10.5706 10.942 10.6097C10.9824 10.6487 11.006 10.7019 11.0079 10.758V12.053C11.0138 12.2087 11.0811 12.3557 11.1951 12.462C11.309 12.5682 11.4605 12.625 11.6162 12.62H12.9822C13.0104 12.62 13.0383 12.6255 13.0644 12.6363C13.0904 12.6471 13.1141 12.6629 13.134 12.6829C13.154 12.7028 13.1698 12.7265 13.1806 12.7525C13.1914 12.7786 13.1969 12.8065 13.1969 12.8347C13.1969 12.8629 13.1914 12.8909 13.1806 12.9169C13.1698 12.943 13.154 12.9666 13.134 12.9866C13.1141 13.0065 13.0904 13.0223 13.0644 13.0331C13.0383 13.0439 13.0104 13.0495 12.9822 13.0495Z" fill="#5439AC"/>
<path d="M10.7917 17.0885C10.7345 17.0887 10.6796 17.0662 10.639 17.0259C10.5984 16.9856 10.5755 16.9309 10.5752 16.8737V15.5787C10.5816 15.3087 10.6947 15.0522 10.8898 14.8654C11.0849 14.6786 11.3461 14.5768 11.6162 14.5822H12.9822C13.0391 14.5822 13.0938 14.6049 13.134 14.6451C13.1743 14.6854 13.1969 14.74 13.1969 14.797C13.1969 14.8539 13.1743 14.9086 13.134 14.9488C13.0938 14.9891 13.0391 15.0117 12.9822 15.0117H11.6162C11.4605 15.0067 11.309 15.0635 11.1951 15.1697C11.0811 15.276 11.0138 15.423 11.0079 15.5787V16.8737C11.0077 16.9309 10.9848 16.9856 10.9442 17.0258C10.9037 17.0661 10.8488 17.0886 10.7917 17.0885Z" fill="#5439AC"/>
<path d="M9.14352 13.4492H7.39102C7.36282 13.4492 7.33489 13.4436 7.30884 13.4328C7.28278 13.4221 7.25911 13.4062 7.23917 13.3863C7.21922 13.3664 7.2034 13.3427 7.19261 13.3166C7.18182 13.2906 7.17627 13.2627 7.17627 13.2345C7.17627 13.2063 7.18182 13.1783 7.19261 13.1523C7.2034 13.1262 7.21922 13.1025 7.23917 13.0826C7.25911 13.0627 7.28278 13.0468 7.30884 13.036C7.33489 13.0252 7.36282 13.0197 7.39102 13.0197H8.92702V11.9884C8.92893 11.9323 8.95257 11.8792 8.99294 11.8401C9.03331 11.8011 9.08726 11.7793 9.1434 11.7793C9.19955 11.7793 9.2535 11.8011 9.29387 11.8401C9.33424 11.8792 9.35786 11.9323 9.35977 11.9884V13.2345C9.35967 13.2628 9.354 13.2907 9.34308 13.3168C9.33216 13.343 9.31621 13.3667 9.29613 13.3866C9.27605 13.4066 9.25223 13.4223 9.22604 13.4331C9.19986 13.4438 9.17182 13.4493 9.14352 13.4492Z" fill="#5439AC"/>
<path d="M9.14352 15.074H7.39102C7.36282 15.074 7.33489 15.0685 7.30884 15.0577C7.28278 15.0469 7.25911 15.0311 7.23917 15.0111C7.21922 14.9912 7.2034 14.9675 7.19261 14.9415C7.18182 14.9154 7.17627 14.8875 7.17627 14.8593C7.17627 14.8311 7.18182 14.8032 7.19261 14.7771C7.2034 14.751 7.21922 14.7274 7.23917 14.7074C7.25911 14.6875 7.28278 14.6717 7.30884 14.6609C7.33489 14.6501 7.36282 14.6445 7.39102 14.6445H9.14352C9.17173 14.6445 9.19965 14.6501 9.22571 14.6609C9.25176 14.6717 9.27544 14.6875 9.29538 14.7074C9.31532 14.7274 9.33113 14.751 9.34192 14.7771C9.35271 14.8032 9.35828 14.8311 9.35828 14.8593C9.35828 14.8875 9.35271 14.9154 9.34192 14.9415C9.33113 14.9675 9.31532 14.9912 9.29538 15.0111C9.27544 15.0311 9.25176 15.0469 9.22571 15.0577C9.19965 15.0685 9.17173 15.074 9.14352 15.074Z" fill="#5439AC"/>
<path d="M13.7385 18.7496L13.7075 18.7483C13.6513 18.7448 13.5986 18.7201 13.56 18.6791C13.5214 18.6382 13.4998 18.5841 13.4995 18.5279C13.4997 18.4731 13.5212 18.4207 13.5595 18.3816C13.5978 18.3425 13.6498 18.3199 13.7045 18.3186C13.8532 18.3158 13.995 18.2552 14.0997 18.1495C14.2044 18.0439 14.2638 17.9016 14.2653 17.7528V13.4901C14.2653 13.4566 14.2732 13.4236 14.2883 13.3937C14.3034 13.3637 14.3253 13.3378 14.3523 13.3178C14.3794 13.2979 14.4108 13.2845 14.444 13.2787C14.4771 13.2729 14.5112 13.2748 14.5435 13.2844C15.1901 13.4728 15.7467 13.8889 16.1104 14.4558C16.4741 15.0226 16.6204 15.702 16.5222 16.3683C16.424 17.0346 16.088 17.6429 15.5762 18.0807C15.0644 18.5186 14.4115 18.7564 13.738 18.7504L13.7385 18.7496ZM14.6985 13.7969V17.7528C14.6986 17.8918 14.6689 18.0292 14.6115 18.1558C15.0479 17.9876 15.4242 17.6933 15.6927 17.3104C15.9611 16.9274 16.1095 16.4733 16.1188 16.0057C16.1281 15.5381 15.998 15.0784 15.7451 14.6851C15.4921 14.2917 15.1278 13.9826 14.6985 13.7971V13.7969Z" fill="#5439AC"/>
<path d="M15.6863 18.7504C15.3254 18.7503 14.9678 18.6804 14.6333 18.5446C14.5935 18.5287 14.5594 18.5013 14.5354 18.4658C14.5113 18.4303 14.4985 18.3885 14.4985 18.3456C14.4985 18.3027 14.5113 18.2609 14.5354 18.2254C14.5594 18.1899 14.5935 18.1625 14.6333 18.1466C15.0716 17.9728 15.4476 17.6713 15.7125 17.2813C15.9774 16.8912 16.119 16.4306 16.119 15.9591C16.119 15.4876 15.9774 15.027 15.7125 14.6369C15.4476 14.2469 15.0716 13.9454 14.6333 13.7716C14.5934 13.7558 14.5592 13.7284 14.5351 13.6929C14.511 13.6574 14.498 13.6155 14.498 13.5726C14.498 13.5297 14.511 13.4878 14.5351 13.4523C14.5592 13.4168 14.5934 13.3894 14.6333 13.3736C15.0159 13.2149 15.4289 13.1431 15.8425 13.1636C16.2561 13.184 16.6601 13.2961 17.0251 13.4917C17.3901 13.6873 17.7071 13.9616 17.9531 14.2948C18.1992 14.6279 18.3681 15.0115 18.4477 15.418C18.5274 15.8244 18.5157 16.2434 18.4136 16.6447C18.3114 17.0461 18.1214 17.4197 17.8572 17.7387C17.593 18.0576 17.2612 18.3138 16.8859 18.4888C16.5105 18.6638 16.101 18.7532 15.6868 18.7506L15.6863 18.7504ZM15.2901 18.2874C15.421 18.3097 15.5535 18.3209 15.6863 18.3208C16.3129 18.3208 16.9138 18.0719 17.3569 17.6289C17.7999 17.1858 18.0488 16.5849 18.0488 15.9583C18.0488 15.3318 17.7999 14.7309 17.3569 14.2878C16.9138 13.8448 16.3129 13.5958 15.6863 13.5958C15.5532 13.5958 15.4203 13.6071 15.2891 13.6296C15.6767 13.882 15.9951 14.2272 16.2155 14.6338C16.436 15.0404 16.5514 15.4956 16.5514 15.9581C16.5514 16.4206 16.436 16.8758 16.2155 17.2824C15.9951 17.689 15.6767 18.0342 15.2891 18.2866L15.2901 18.2874Z" fill="#5439AC"/>
<path d="M16.2568 12.308H16.2545C16.1973 12.3076 16.1426 12.2845 16.1023 12.2438L15.0963 11.2265L14.745 11.5265C14.7013 11.5635 14.6447 11.5818 14.5876 11.5774C14.5305 11.573 14.4774 11.5463 14.4398 11.503C14.4213 11.4817 14.4072 11.4569 14.3984 11.43C14.3896 11.4032 14.3861 11.3749 14.3883 11.3467C14.3905 11.3186 14.3983 11.2912 14.4111 11.266C14.424 11.2409 14.4417 11.2185 14.4633 11.2003L14.9683 10.7705C15.0101 10.7351 15.0638 10.7168 15.1185 10.7191C15.1733 10.7215 15.2252 10.7444 15.2638 10.7833L16.2598 11.7908L17.7583 10.3318L16.9771 10.3243C16.9202 10.324 16.8658 10.3013 16.8256 10.2611C16.7854 10.2209 16.7627 10.1664 16.7625 10.1095V10.1073C16.7633 10.0504 16.7866 9.99614 16.8271 9.9563C16.8677 9.91646 16.9224 9.89426 16.9793 9.89453H16.9813L18.285 9.90703C18.337 9.90757 18.387 9.92673 18.426 9.96103C18.4366 9.97046 18.4463 9.98085 18.455 9.99204C18.4807 10.0257 18.4957 10.0663 18.498 10.1085C18.4984 10.114 18.4984 10.1195 18.498 10.125L18.4858 11.4173C18.485 11.4741 18.4619 11.5283 18.4214 11.5681C18.3809 11.6079 18.3263 11.6302 18.2695 11.63H18.2673C18.2101 11.6296 18.1554 11.6066 18.1152 11.5659C18.075 11.5252 18.0525 11.4702 18.0528 11.413L18.0603 10.638L16.407 12.2473C16.3667 12.2862 16.3128 12.3079 16.2568 12.308Z" fill="#5439AC"/>
</svg>
