<svg width="24" height="24" viewBox="0 0 24 24" fill="none" xmlns="http://www.w3.org/2000/svg">
<rect width="24" height="24" rx="5" fill="#56C5D0" fill-opacity="0.15"/>
<path d="M18.4249 3.0915C18.7254 3.04073 19.0345 3.00865 19.3379 3.0538C19.5307 3.0839 19.7307 3.15489 19.8569 3.30843C19.9679 3.44038 19.9999 3.61885 19.9862 3.78546C19.9653 4.03234 19.8701 4.26599 19.7599 4.48627C19.5781 4.84016 19.3447 5.16609 19.0964 5.47757C18.7432 5.91736 18.3536 6.32781 17.9481 6.72123C17.4031 7.24965 16.8257 7.74522 16.231 8.21906C16.186 8.25388 16.1419 8.28975 16.097 8.32472C16.0498 8.32472 16.0028 8.32472 15.9559 8.32456C16.4118 7.96367 16.8545 7.58606 17.2743 7.18489C17.6408 6.83433 17.9914 6.4666 18.3065 6.07029C18.4936 5.83375 18.6686 5.58687 18.8113 5.32176C18.9103 5.13477 18.9961 4.93715 19.0281 4.72737C19.0502 4.57596 19.0362 4.4095 18.9421 4.28226C18.845 4.14863 18.6815 4.08159 18.5221 4.05271C18.2381 4.00285 17.9473 4.03842 17.6662 4.08904C17.0755 4.20336 16.5082 4.41041 15.9554 4.64102C14.8647 5.10422 13.8284 5.68325 12.8326 6.31823C11.9028 6.91429 11.0075 7.56326 10.1644 8.27318C9.67198 8.68895 9.1969 9.12585 8.75664 9.59513C8.43352 9.94173 8.12588 10.3051 7.87116 10.7038C7.72864 10.9315 7.59865 11.1719 7.53551 11.4336C7.49729 11.5981 7.49048 11.7831 7.58086 11.933C7.6621 12.0704 7.81499 12.1496 7.96819 12.1849C8.24782 12.248 8.53844 12.2173 8.81823 12.1711C9.35366 12.0755 9.8699 11.8974 10.3733 11.6972C10.6932 11.5689 11.0076 11.4279 11.3182 11.279C11.3182 11.3199 11.3182 11.3608 11.3187 11.4019C10.7733 11.6822 10.2162 11.9411 9.64583 12.1683C9.10513 12.3819 8.55191 12.5712 7.98042 12.6872C7.66349 12.7487 7.33821 12.7918 7.01494 12.7594C6.82104 12.7378 6.61893 12.685 6.47239 12.5514C6.3571 12.449 6.29566 12.2979 6.28777 12.1471C6.27462 11.9245 6.3424 11.7064 6.42767 11.5028C6.52701 11.2693 6.65809 11.0502 6.79829 10.8383C6.84425 10.7717 6.8899 10.705 6.93741 10.6396C7.28157 10.1681 7.6751 9.73331 8.08642 9.3177C8.97344 8.4287 9.94821 7.62756 10.9626 6.88283C11.9219 6.18142 12.92 5.53063 13.9548 4.94156C14.5526 4.60195 15.1631 4.28363 15.7886 3.99555C16.3013 3.76038 16.8242 3.54482 17.3608 3.36757C17.709 3.25386 18.0633 3.15489 18.4249 3.0915Z" fill="#FAA61A"/>
<path d="M16.2314 8.21869C16.5496 8.19193 16.8698 8.18585 17.1892 8.18555C17.5852 8.18889 17.9824 8.20972 18.3733 8.27478C18.6475 8.32206 18.9224 8.38819 19.171 8.51436C19.3363 8.6001 19.4955 8.72126 19.5703 8.89486C19.6398 9.05235 19.6186 9.23417 19.5522 9.38923C19.4592 9.60616 19.3024 9.78934 19.1358 9.95564C18.851 10.2334 18.525 10.4663 18.1891 10.6803C17.4649 11.1368 16.6879 11.5065 15.8976 11.8385C14.6802 12.3455 13.4218 12.7543 12.1449 13.091C10.7897 13.4452 9.41037 13.7207 8.01438 13.8622C7.24837 13.9365 6.47509 13.9758 5.70691 13.9101C5.32716 13.8739 4.94353 13.8166 4.589 13.672C4.39557 13.5901 4.20166 13.4752 4.09396 13.2911C4.00034 13.134 4.00513 12.9373 4.0709 12.7713C4.16282 12.5351 4.33289 12.3382 4.5124 12.161C4.90485 11.7843 5.36646 11.4859 5.83721 11.2128C6.19468 11.0046 6.56732 10.8235 6.93779 10.6393C6.89028 10.7046 6.84463 10.7714 6.79867 10.838C6.44816 11.0411 6.10276 11.2569 5.79404 11.5188C5.61499 11.6724 5.44384 11.841 5.3236 12.0442C5.24467 12.1795 5.1902 12.3413 5.22874 12.4975C5.26201 12.6397 5.36909 12.7528 5.49011 12.8312C5.67658 12.9512 5.89354 13.0149 6.10926 13.0617C6.51083 13.1453 6.92293 13.1641 7.3324 13.166C8.12131 13.1608 8.90744 13.0751 9.68552 12.9513C10.9602 12.7453 12.2166 12.4345 13.4445 12.0409C14.5258 11.6894 15.5911 11.2771 16.5907 10.7379C17.0031 10.5117 17.407 10.2648 17.7653 9.96097C17.9462 9.80393 18.1203 9.63215 18.2376 9.42282C18.3128 9.28768 18.3601 9.12593 18.3156 8.97346C18.2729 8.82189 18.1488 8.70834 18.0152 8.63035C17.8026 8.50859 17.5609 8.44778 17.3207 8.40415C16.9173 8.33392 16.5063 8.32054 16.0974 8.32434C16.1423 8.28938 16.1864 8.2535 16.2314 8.21869Z" fill="#56C5D0"/>
<path d="M14.9126 16.605C15.0976 16.521 15.2825 16.4374 15.4676 16.3535C15.4676 17.3482 15.4677 18.3428 15.4674 19.3375C15.2826 19.4218 15.0977 19.5061 14.9126 19.5898C14.9123 18.5949 14.9123 17.5999 14.9126 16.605ZM9.02226 16.6046C9.20672 16.527 9.39087 16.4491 9.57533 16.3719C9.5758 17.391 9.57502 18.4102 9.5758 19.4293C9.58137 19.5474 9.54005 19.6675 9.45927 19.7555C9.40433 19.8168 9.33114 19.8584 9.25546 19.8901C8.65952 20.1596 8.06575 20.4334 7.47058 20.7049C7.28086 20.7841 7.07474 20.8359 6.86722 20.8262C6.71897 20.8193 6.56824 20.7674 6.46409 20.6603C6.35004 20.5469 6.29929 20.3894 6.26803 20.2368C6.2247 20.0082 6.23321 19.7608 6.34215 19.5503C6.42726 19.3834 6.57722 19.2543 6.74837 19.1765C7.31289 18.9164 7.87742 18.6563 8.4421 18.3965C8.44102 18.5959 8.44334 18.7954 8.44102 18.9948C7.92276 19.2367 7.40574 19.4807 6.88811 19.7234C6.8047 19.7612 6.72469 19.8145 6.67595 19.893C6.61822 19.9836 6.61652 20.1058 6.67316 20.1974C6.72392 20.2754 6.82497 20.2984 6.91333 20.299C6.99504 20.2967 7.0786 20.2877 7.15505 20.2578C7.77869 19.9703 8.40171 19.6818 9.02551 19.3946C9.02489 18.4646 9.02257 17.5345 9.02226 16.6046ZM11.8851 16.6046C12.0694 16.5242 12.2539 16.4446 12.4382 16.3646C12.4391 17.3567 12.437 18.3486 12.4394 19.3407C12.2559 19.4235 12.0697 19.5007 11.8853 19.5812C11.8851 18.5889 11.8851 17.5969 11.8851 16.6046Z" fill="#231F20"/>
<path d="M16.7404 16.4619C17.0069 16.6215 17.2656 16.7944 17.5098 16.9856C17.6604 17.1056 17.808 17.2316 17.9297 17.3806C17.9806 17.4446 18.0278 17.5131 18.0538 17.591C18.0747 17.6493 18.0654 17.7121 18.0672 17.7728C18.0649 17.8366 18.0719 17.9011 18.0638 17.9646C18.0344 18.061 17.9484 18.1273 17.8633 18.1759C17.572 18.3199 17.2844 18.4711 16.9942 18.6174C16.9928 18.7236 16.9942 18.83 16.9936 18.9365C17.3791 18.7595 17.7646 18.5824 18.1502 18.4058C18.1508 18.6063 18.15 18.8069 18.1507 19.0075C16.7093 19.6698 15.2671 20.3305 13.8254 20.9919C13.8249 20.7906 13.8251 20.5893 13.8254 20.3881C14.796 19.944 15.7655 19.4977 16.737 19.0553C16.7406 18.9436 16.7362 18.832 16.7395 18.7204C16.5708 18.7787 16.3938 18.8383 16.2123 18.8165C16.1018 18.8048 15.9944 18.7451 15.9396 18.6482C15.8573 18.5076 15.857 18.3369 15.8786 18.1805C15.8895 18.0365 15.9729 17.9123 16.0499 17.7942C16.2513 17.5041 16.4922 17.243 16.7398 16.9906C16.7409 16.8143 16.7398 16.6381 16.7404 16.4619ZM16.986 17.4547C16.9859 17.6937 16.9857 17.9325 16.9862 18.1715C17.1347 18.1119 17.2844 18.0456 17.4068 17.9417C17.4606 17.8933 17.5146 17.8322 17.5165 17.7568C17.5114 17.6784 17.4527 17.6153 17.3868 17.577C17.2652 17.5058 17.1245 17.4753 16.986 17.4547ZM16.2937 18.0941C16.2571 18.1359 16.226 18.1869 16.2222 18.243C16.222 18.301 16.2858 18.3261 16.3356 18.3313C16.4718 18.3462 16.608 18.3161 16.7403 18.2864C16.7398 18.0759 16.7372 17.8655 16.7383 17.6551C16.5892 17.8006 16.4419 17.9477 16.2937 18.0941ZM9.9494 18.0766C10.045 17.9129 10.2188 17.7924 10.411 17.7709C10.6405 17.7545 10.8743 17.8129 11.0706 17.9307C11.4109 18.135 11.6125 18.5002 11.7179 18.8679C11.7434 19.054 11.71 19.2543 11.601 19.4114C11.5266 19.519 11.4126 19.5944 11.2892 19.6382C10.7199 19.8963 10.1521 20.1576 9.58326 20.4167C9.5828 20.2146 9.58311 20.0127 9.58311 19.8109C10.162 19.5451 10.7413 19.2805 11.3202 19.0149C11.3203 18.9425 11.3191 18.8703 11.3166 18.7981C11.1436 18.8982 10.9624 18.9842 10.777 19.0594C10.5857 19.1342 10.3867 19.2023 10.179 19.2104C10.0698 19.214 9.94615 19.1915 9.87404 19.1032C9.80533 19.0204 9.80208 18.9079 9.8061 18.8062C9.79326 18.5575 9.81926 18.2956 9.9494 18.0766ZM10.3652 18.3109C10.2846 18.3267 10.2083 18.3763 10.1738 18.4512C10.1363 18.5313 10.1448 18.6228 10.1664 18.706C10.398 18.6201 10.6281 18.5304 10.8598 18.4445C10.8372 18.3814 10.7833 18.3325 10.7194 18.3111C10.6054 18.2715 10.4808 18.286 10.3652 18.3109Z" fill="#231F20"/>
<path d="M13.3476 18.0352C13.6134 18.1945 13.8715 18.367 14.1153 18.5576C14.2705 18.6814 14.4231 18.8114 14.5467 18.9667C14.6159 19.0561 14.6818 19.1604 14.6747 19.2774C14.6716 19.363 14.6796 19.4494 14.6705 19.5347C14.6396 19.6397 14.5431 19.7095 14.4495 19.7595C14.0815 19.9349 13.7151 20.1137 13.3469 20.289C13.1826 20.3537 13.0054 20.4071 12.8262 20.3899C12.7041 20.3797 12.587 20.3093 12.5336 20.1993C12.4526 20.0389 12.4661 19.8521 12.4957 19.6809C12.5336 19.5421 12.6181 19.4217 12.6996 19.3047C12.8935 19.0397 13.1162 18.7962 13.3476 18.5624C13.3474 18.3866 13.3472 18.2109 13.3476 18.0352ZM13.3364 19.2166C13.1803 19.3463 13.0221 19.4804 12.9116 19.6514C12.876 19.7118 12.8332 19.7942 12.8802 19.8597C12.9082 19.9101 12.9735 19.9184 13.0263 19.9146C13.1601 19.9032 13.2861 19.8527 13.4091 19.8031C13.6985 19.6804 13.973 19.5269 14.242 19.3664C14.1363 19.1674 13.959 19.014 13.7655 18.8994C13.6184 18.9997 13.4746 19.1049 13.3364 19.2166Z" fill="#231F20"/>
</svg>
