<svg width="24" height="24" viewBox="0 0 24 24" fill="none" xmlns="http://www.w3.org/2000/svg">
<rect width="24" height="24" rx="5" fill="#E6F6F8"/>
<path d="M9.7301 10.1602L9.31836 10.157L9.34161 6.33374C9.33104 6.05798 9.42999 5.78923 9.61688 5.58618C9.80377 5.38313 10.0634 5.26228 10.3391 5.25H11.4934C11.5209 5.25058 11.5481 5.25659 11.5734 5.26768C11.5986 5.27878 11.6215 5.29475 11.6405 5.31467C11.6596 5.33459 11.6746 5.35808 11.6846 5.38379C11.6946 5.4095 11.6995 5.43691 11.6989 5.46449V5.9395C11.6961 5.97224 11.7063 6.00476 11.7273 6.03003C11.7483 6.05529 11.7784 6.07126 11.8111 6.07449H14.0876C14.1203 6.07126 14.1504 6.05529 14.1714 6.03003C14.1924 6.00476 14.2026 5.97224 14.1999 5.9395V5.46449C14.1993 5.43691 14.2041 5.4095 14.2141 5.38379C14.2241 5.35808 14.2391 5.33459 14.2582 5.31467C14.2772 5.29475 14.3001 5.27878 14.3253 5.26768C14.3506 5.25659 14.3778 5.25058 14.4054 5.25H15.4121C15.688 5.2624 15.9477 5.38348 16.1346 5.58678C16.3214 5.79008 16.4202 6.05907 16.4094 6.33499V9.367C16.4107 9.39484 16.4064 9.42266 16.3967 9.44879C16.387 9.47492 16.3721 9.49881 16.3529 9.519C16.3337 9.53919 16.3105 9.55526 16.2849 9.56624C16.2593 9.57722 16.2317 9.58289 16.2039 9.58289C16.176 9.58289 16.1484 9.57722 16.1228 9.56624C16.0972 9.55526 16.074 9.53919 16.0548 9.519C16.0356 9.49881 16.0207 9.47492 16.011 9.44879C16.0013 9.42266 15.997 9.39484 15.9984 9.367V6.33549C16.0069 6.17095 15.9501 6.00969 15.8404 5.8868C15.7307 5.7639 15.5768 5.6893 15.4124 5.67924H14.6111V5.93875C14.616 6.08278 14.5638 6.22291 14.4657 6.32854C14.3677 6.43416 14.2319 6.49671 14.0879 6.5025H11.8114C11.6674 6.49671 11.5315 6.43416 11.4335 6.32854C11.3354 6.22291 11.2832 6.08278 11.2881 5.93875V5.67924H10.3381C10.1736 5.68924 10.0197 5.76381 9.90991 5.88672C9.80012 6.00962 9.74332 6.17091 9.75186 6.33549L9.7301 10.1602Z" fill="#5439AC"/>
<path d="M15.4077 17.0037H10.3112C10.0347 16.9919 9.77408 16.8711 9.58634 16.6678C9.3986 16.4644 9.29895 16.195 9.30918 15.9185V12.2315C9.30909 12.195 9.31822 12.1591 9.3357 12.1271C9.35318 12.0951 9.37846 12.0681 9.40919 12.0485L10.6649 11.253C10.7149 11.2257 10.7566 11.1855 10.7856 11.1365C10.8146 11.0875 10.8298 11.0316 10.8297 10.9747V10.6452C10.8304 10.5922 10.8174 10.5398 10.7921 10.4932C10.7667 10.4466 10.7298 10.4072 10.6849 10.379C10.6421 10.3514 10.5925 10.3362 10.5416 10.335C10.4907 10.3338 10.4405 10.3467 10.3964 10.3722L8.56168 11.3925C8.51374 11.42 8.474 11.4599 8.44654 11.5079C8.41908 11.5559 8.40489 11.6104 8.40543 11.6657V14.6462C8.40681 14.6742 8.40249 14.7021 8.39274 14.7284C8.38298 14.7546 8.36798 14.7786 8.34867 14.7989C8.32936 14.8192 8.30613 14.8354 8.28039 14.8464C8.25465 14.8574 8.22694 14.8631 8.19893 14.8631C8.17093 14.8631 8.14321 14.8574 8.11747 14.8464C8.09173 14.8354 8.0685 14.8192 8.04919 14.7989C8.02987 14.7786 8.01489 14.7546 8.00513 14.7284C7.99538 14.7021 7.99106 14.6742 7.99244 14.6462V11.6655C7.99153 11.5336 8.0258 11.4038 8.09171 11.2896C8.15762 11.1753 8.2528 11.0807 8.36744 11.0155L10.2019 9.99521C10.3086 9.93481 10.4297 9.90447 10.5523 9.90742C10.6748 9.91037 10.7943 9.9465 10.8979 10.012C11.0051 10.0793 11.0931 10.173 11.1536 10.2841C11.2142 10.3952 11.2452 10.52 11.2437 10.6465V10.9752C11.2448 11.1068 11.211 11.2363 11.1457 11.3505C11.0804 11.4647 10.9859 11.5595 10.8719 11.6252L9.72419 12.3525V15.9187C9.7156 16.0838 9.77274 16.2455 9.88312 16.3686C9.99351 16.4916 10.1481 16.5659 10.3132 16.5752H15.4077C15.5727 16.5658 15.7272 16.4915 15.8376 16.3685C15.9479 16.2455 16.005 16.0837 15.9964 15.9187C15.9951 15.8907 15.9994 15.8628 16.0091 15.8365C16.0189 15.8103 16.0339 15.7863 16.0532 15.766C16.0725 15.7457 16.0957 15.7296 16.1215 15.7185C16.1472 15.7075 16.1749 15.7018 16.2029 15.7018C16.2309 15.7018 16.2587 15.7075 16.2844 15.7185C16.3101 15.7296 16.3334 15.7457 16.3527 15.766C16.372 15.7863 16.387 15.8103 16.3967 15.8365C16.4065 15.8628 16.4108 15.8907 16.4094 15.9187C16.4197 16.1952 16.32 16.4645 16.1323 16.6678C15.9446 16.8711 15.6841 16.9919 15.4077 17.0037Z" fill="#5439AC"/>
<path d="M16.7766 15.7392C16.6869 15.7392 16.598 15.7222 16.5146 15.6892L16.3703 15.6319C15.932 15.4564 15.5569 15.1526 15.2942 14.7603C15.0315 14.368 14.8934 13.9055 14.8981 13.4334V10.3007C14.8976 10.1807 14.9261 10.0624 14.9813 9.95592C15.0366 9.84942 15.1167 9.75789 15.2151 9.68916C15.3115 9.622 15.423 9.57978 15.5397 9.56625C15.6564 9.55273 15.7746 9.56832 15.8838 9.61166L17.0391 10.0702C17.1764 10.125 17.2939 10.2201 17.3762 10.3429C17.4585 10.4658 17.5018 10.6106 17.5003 10.7584V14.9992C17.5007 15.1189 17.4722 15.237 17.417 15.3434C17.3618 15.4497 17.2818 15.5411 17.1836 15.6097C17.0644 15.6935 16.9223 15.7387 16.7766 15.7392ZM15.6206 9.99167C15.5604 9.99186 15.5018 10.0105 15.4526 10.0452C15.4111 10.0738 15.3773 10.1121 15.3542 10.1568C15.331 10.2016 15.3192 10.2513 15.3198 10.3017V13.4334C15.319 13.8191 15.433 14.1963 15.6474 14.5169C15.8618 14.8374 16.1668 15.0869 16.5236 15.2334L16.6678 15.2907C16.7131 15.309 16.7622 15.3157 16.8107 15.3101C16.8592 15.3044 16.9055 15.2867 16.9453 15.2584C16.9868 15.2298 17.0205 15.1914 17.0437 15.1467C17.0668 15.102 17.0786 15.0523 17.0781 15.0019V10.7592C17.0783 10.6973 17.0601 10.6368 17.0257 10.5854C16.9914 10.534 16.9425 10.4939 16.8853 10.4704L15.7301 10.0122C15.6953 9.99808 15.6581 9.99079 15.6206 9.99067V9.99167Z" fill="#5439AC"/>
<path d="M11.1005 18.7502C11.0949 18.7506 11.0892 18.7506 11.0835 18.7502C9.76245 18.6438 8.53027 18.0424 7.63354 17.0665C7.09994 16.4602 6.71478 15.7381 6.50854 14.9572C6.49595 14.911 6.49914 14.8618 6.51762 14.8176C6.53609 14.7734 6.56878 14.7366 6.61053 14.713L8.10203 13.8827C8.12634 13.8692 8.15311 13.8607 8.18075 13.8577C8.20839 13.8547 8.23637 13.8572 8.26303 13.8651C8.28968 13.873 8.31448 13.8862 8.33599 13.9038C8.3575 13.9214 8.37528 13.9432 8.38829 13.9677C8.41529 14.0175 8.42166 14.0759 8.40605 14.1303C8.39043 14.1847 8.35407 14.2309 8.30479 14.2587L6.96179 15.0062C7.15877 15.6611 7.49475 16.2657 7.94679 16.7787C8.75681 17.6592 9.86494 18.2075 11.0563 18.3172L14.1298 16.602C14.1541 16.5885 14.1809 16.58 14.2085 16.577C14.2362 16.5739 14.2641 16.5764 14.2908 16.5843C14.3175 16.5922 14.3423 16.6053 14.3638 16.6229C14.3854 16.6405 14.4032 16.6622 14.4163 16.6867C14.4433 16.7365 14.4497 16.7949 14.4342 16.8494C14.4186 16.9038 14.3823 16.95 14.333 16.978L11.2033 18.7245C11.1718 18.7417 11.1364 18.7506 11.1005 18.7502Z" fill="#5439AC"/>
<path d="M14.8941 8.82253C14.8662 8.82261 14.8385 8.81707 14.8127 8.8062C14.7869 8.79533 14.7636 8.77936 14.7441 8.75928C14.5142 8.52422 14.2396 8.33745 13.9366 8.20995C13.6335 8.08244 13.308 8.01677 12.9791 8.01677C12.6503 8.01677 12.3248 8.08244 12.0217 8.20995C11.7186 8.33745 11.4441 8.52422 11.2141 8.75928C11.1947 8.77915 11.1715 8.79494 11.1459 8.80573C11.1203 8.81651 11.0928 8.82207 11.065 8.82207C11.0372 8.82207 11.0097 8.81651 10.9841 8.80573C10.9585 8.79494 10.9353 8.77915 10.9159 8.75928C10.8762 8.71873 10.854 8.66426 10.854 8.60753C10.854 8.5508 10.8762 8.49633 10.9159 8.45578C11.1847 8.18074 11.5058 7.9622 11.8602 7.81299C12.2147 7.66378 12.5954 7.58691 12.98 7.58691C13.3646 7.58691 13.7453 7.66378 14.0998 7.81299C14.4542 7.9622 14.7753 8.18074 15.0441 8.45578C15.0838 8.49633 15.106 8.5508 15.106 8.60753C15.106 8.66426 15.0838 8.71873 15.0441 8.75928C15.0246 8.77932 15.0013 8.79524 14.9755 8.80611C14.9498 8.81697 14.9221 8.82255 14.8941 8.82253Z" fill="#57C5D0"/>
<path d="M14.3769 9.34335C14.349 9.34335 14.3213 9.33775 14.2955 9.32689C14.2698 9.31603 14.2464 9.30012 14.2269 9.28011C14.0648 9.1145 13.8713 8.98292 13.6577 8.8931C13.4441 8.80327 13.2147 8.757 12.9829 8.757C12.7512 8.757 12.5218 8.80327 12.3082 8.8931C12.0945 8.98292 11.901 9.1145 11.7389 9.28011C11.7195 9.29998 11.6963 9.31576 11.6707 9.32654C11.6451 9.33732 11.6176 9.34288 11.5898 9.34288C11.562 9.34288 11.5345 9.33732 11.5089 9.32654C11.4833 9.31576 11.4601 9.29998 11.4407 9.28011C11.4011 9.23957 11.3789 9.18515 11.3789 9.12848C11.3789 9.07181 11.4011 9.01739 11.4407 8.97685C11.6417 8.77119 11.8817 8.60776 12.1468 8.49619C12.4118 8.38461 12.6965 8.32715 12.9841 8.32715C13.2716 8.32715 13.5563 8.38461 13.8213 8.49619C14.0864 8.60776 14.3264 8.77119 14.5274 8.97685C14.567 9.01742 14.5891 9.07183 14.5891 9.12848C14.5891 9.18513 14.567 9.23954 14.5274 9.28011C14.5079 9.3002 14.4845 9.31615 14.4586 9.32701C14.4327 9.33788 14.405 9.34343 14.3769 9.34335Z" fill="#57C5D0"/>
<path d="M13.697 9.81693C13.5179 9.63261 13.2737 9.52573 13.0167 9.51918C12.7598 9.52581 12.5157 9.63268 12.3365 9.81693C12.3171 9.83704 12.2937 9.85303 12.2679 9.86394C12.2422 9.87485 12.2145 9.88046 12.1865 9.88043C12.1586 9.88059 12.131 9.87513 12.1052 9.8644C12.0795 9.85366 12.056 9.83786 12.0365 9.81793C11.9968 9.77743 11.9746 9.72299 11.9746 9.66631C11.9746 9.60962 11.9968 9.55519 12.0365 9.51468C12.0987 9.45098 12.1668 9.39323 12.2397 9.34218C12.4529 9.17551 12.7165 9.08654 12.9871 9.08994H13.045C13.2725 9.08936 13.4954 9.1538 13.6875 9.27568C13.8006 9.34084 13.9041 9.42126 13.9952 9.51468C14.0349 9.55519 14.0571 9.60962 14.0571 9.66631C14.0571 9.72299 14.0349 9.77743 13.9952 9.81793C13.9759 9.83768 13.9529 9.85338 13.9274 9.86411C13.9019 9.87484 13.8745 9.88039 13.8468 9.88043C13.8189 9.88037 13.7912 9.87471 13.7655 9.86381C13.7398 9.8529 13.7165 9.83697 13.697 9.81693Z" fill="#57C5D0"/>
<path d="M12.6416 14.3848C12.6136 14.3846 12.586 14.3789 12.5603 14.368C12.5346 14.3571 12.5112 14.3412 12.4917 14.3213C12.4721 14.3014 12.4566 14.2778 12.4461 14.2519C12.4356 14.226 12.4303 14.1983 12.4306 14.1703V12.7648L12.1711 13.0301C12.1517 13.0499 12.1285 13.0657 12.1028 13.0765C12.0772 13.0873 12.0497 13.0929 12.022 13.0929C11.9942 13.0929 11.9667 13.0873 11.9411 13.0765C11.9154 13.0657 11.8922 13.0499 11.8728 13.0301C11.8332 12.9895 11.811 12.935 11.811 12.8783C11.811 12.8216 11.8332 12.7672 11.8728 12.7266L12.4928 12.0926C12.5221 12.0625 12.5596 12.042 12.6007 12.0336C12.6417 12.0251 12.6844 12.0292 12.7231 12.0453C12.7619 12.0619 12.795 12.0895 12.8182 12.1248C12.8414 12.16 12.8537 12.2014 12.8536 12.2436V14.1686C12.854 14.1967 12.8489 14.2247 12.8385 14.2509C12.828 14.2771 12.8125 14.3009 12.7928 14.321C12.773 14.3411 12.7495 14.3571 12.7236 14.3681C12.6976 14.379 12.6697 14.3847 12.6416 14.3848Z" fill="#57C5D0"/>
<path d="M13.263 14.3844C13.2354 14.3844 13.208 14.3789 13.1825 14.3682C13.1437 14.3516 13.1107 14.324 13.0876 14.2888C13.0644 14.2536 13.0521 14.2123 13.0522 14.1702V12.2452C13.0522 12.1892 13.0745 12.1355 13.1141 12.096C13.1536 12.0564 13.2073 12.0342 13.2632 12.0342C13.3192 12.0342 13.3729 12.0564 13.4124 12.096C13.452 12.1355 13.4743 12.1892 13.4743 12.2452V13.6492L13.7335 13.3839C13.753 13.3641 13.7762 13.3484 13.8018 13.3376C13.8275 13.3269 13.855 13.3213 13.8828 13.3213C13.9105 13.3213 13.938 13.3269 13.9637 13.3376C13.9893 13.3484 14.0125 13.3641 14.032 13.3839C14.0716 13.4245 14.0938 13.479 14.0938 13.5357C14.0938 13.5924 14.0716 13.6468 14.032 13.6874L13.412 14.3214C13.3926 14.3413 13.3694 14.3571 13.3438 14.3679C13.3183 14.3787 13.2908 14.3843 13.263 14.3844Z" fill="#57C5D0"/>
<path d="M13.2873 10.0122C13.3668 10.0931 13.4112 10.2021 13.4108 10.3155C13.4095 10.3986 13.3836 10.4795 13.3365 10.5481C13.2893 10.6166 13.2229 10.6696 13.1457 10.7005C13.0685 10.7314 12.9839 10.7388 12.9024 10.7218C12.821 10.7047 12.7465 10.664 12.6881 10.6047C12.6298 10.5455 12.5903 10.4703 12.5745 10.3886C12.5588 10.3069 12.5675 10.2224 12.5997 10.1457C12.6318 10.069 12.6859 10.0035 12.7551 9.9574C12.8244 9.91132 12.9057 9.88673 12.9888 9.88672C13.0444 9.88663 13.0994 9.89763 13.1507 9.9191C13.202 9.94056 13.2484 9.97206 13.2873 10.0117" fill="#57C5D0"/>
</svg>
