<svg width="717" height="466" viewBox="0 0 717 466" fill="none" xmlns="http://www.w3.org/2000/svg">
<g clip-path="url(#clip0)">
<path d="M140.781 296.937L136.818 294.479C136.44 294.246 136.068 293.994 135.69 293.756C144.128 292.31 151.822 288.044 157.508 281.657C163.194 275.27 166.533 267.143 166.976 258.611C167.42 250.08 164.941 241.651 159.948 234.712C154.955 227.772 147.745 222.734 139.502 220.425L139.698 235.936L131.16 219.067H131.04C126.093 218.836 121.148 219.58 116.489 221.256C111.83 222.933 107.547 225.508 103.885 228.836C100.224 232.164 97.255 236.179 95.1486 240.652C93.0422 245.125 91.8394 249.969 91.609 254.905C91.5712 255.622 91.609 256.333 91.609 257.043C88.6413 253.66 85.9382 250.033 84.155 246.059C80.5446 238.017 80.4753 228.901 80.7588 217.828C81.3259 195.879 82.2773 173.766 83.5123 151.722C92.4278 150.732 100.698 146.602 106.837 140.075C112.976 133.548 116.582 125.051 117.008 116.11C117.058 114.96 117.039 113.822 117.008 112.696C117.008 112.413 117.008 112.13 116.964 111.854C116.888 110.76 116.787 109.678 116.617 108.609C116.617 108.433 116.554 108.263 116.523 108.094C116.372 107.188 116.183 106.295 115.968 105.409C115.886 105.082 115.805 104.78 115.716 104.422C115.452 103.466 115.162 102.536 114.822 101.586C114.708 101.278 114.576 100.957 114.456 100.668C114.191 99.9829 113.902 99.3038 113.593 98.6374C113.429 98.2853 113.272 97.9332 113.101 97.5874C113.051 97.4993 113.02 97.405 112.969 97.317C108.987 89.4666 102.373 83.2581 94.2769 79.7725C86.1809 76.2869 77.1163 75.7449 68.6611 78.2409L68.9131 98.4236L60.4699 81.7493C53.5271 85.7184 48.037 91.7976 44.8009 99.0999C41.5647 106.402 40.7518 114.545 42.4808 122.341H42.443C42.4997 122.611 42.5816 122.863 42.6446 123.133C42.7643 123.63 42.8903 124.12 43.0289 124.611C43.2054 125.24 43.407 125.868 43.6149 126.497C43.7725 126.956 43.9237 127.421 44.1001 127.88C44.3584 128.547 44.6483 129.194 44.9381 129.842C45.1082 130.219 45.2595 130.609 45.4422 130.98C45.9211 131.957 46.4419 132.906 47.0048 133.828C47.2001 134.155 47.4207 134.457 47.6349 134.778C48.0382 135.406 48.4414 136.035 48.8951 136.62C49.166 136.991 49.4559 137.343 49.7394 137.708C50.1553 138.229 50.5774 138.745 50.9996 139.242C51.3083 139.6 51.6297 139.94 51.951 140.285C52.4173 140.77 52.8899 141.241 53.3813 141.706C53.7027 142.014 54.0114 142.335 54.3706 142.624C54.9251 143.115 55.5048 143.586 56.0907 144.045C56.3869 144.272 56.6767 144.517 56.9792 144.743C57.8739 145.372 58.7938 146.001 59.7453 146.629C59.9217 146.743 60.117 146.831 60.2935 146.937C61.0937 147.403 61.9002 147.843 62.7319 148.252C63.0911 148.428 63.4565 148.578 63.822 148.742C64.5025 149.05 65.1893 149.371 65.895 149.61C66.3045 149.767 66.7204 149.911 67.1552 150.056C67.8483 150.289 68.554 150.502 69.266 150.685C69.6818 150.798 70.104 150.917 70.5261 151.018C71.2949 151.2 72.0825 151.351 72.8764 151.49L73.0276 151.521C72.5109 160.818 72.0489 170.121 71.6414 179.431C69.3955 174.822 66.2291 170.719 62.3366 167.375C58.4442 164.031 53.9077 161.517 49.006 159.986C44.1042 158.455 38.9406 157.94 33.8322 158.473C28.7237 159.005 23.7783 160.574 19.2997 163.084L25.9661 181.317L12.2364 168.114C4.88404 174.822 0.501082 184.168 0.0504126 194.1C-0.125238 197.583 0.197246 201.074 1.00815 204.468C2.73213 211.809 6.62679 218.464 12.187 223.569C17.7473 228.675 24.7166 231.996 32.1912 233.101C39.6658 234.206 47.3007 233.045 54.1059 229.768C60.9111 226.491 66.5725 221.249 70.356 214.722C70.356 215.665 70.293 216.609 70.2678 217.558C70.0158 227.329 69.7007 239.489 74.5839 250.347C77.8919 257.703 83.2099 263.676 88.4459 269.033C91.8673 272.523 95.4147 275.893 99.0504 279.156C102.626 283.954 107.296 287.834 112.673 290.473C118.646 295.07 124.834 299.389 131.229 303.375L135.224 305.853C138.815 308.072 142.495 310.354 146.099 312.725C145.469 312.662 144.839 312.593 144.209 312.561C136.213 312.189 128.305 314.365 121.629 318.773C114.953 323.181 109.855 329.593 107.071 337.082L130.637 356.215L104.715 350.217C104.723 356.581 106.347 362.839 109.436 368.407C112.525 373.974 116.978 378.67 122.378 382.055C127.778 385.441 133.951 387.405 140.318 387.764C146.686 388.124 153.04 386.868 158.789 384.112C158.21 384.842 157.626 385.567 157.038 386.288C155.878 387.726 154.734 389.155 153.604 390.576C138.267 409.954 134.002 428.357 141.594 442.384L150.831 437.405C143.44 423.755 154.555 406.276 161.839 397.071C162.948 395.667 164.074 394.262 165.216 392.858C175.027 380.679 186.129 366.922 185.858 350.022C185.449 324.564 160.654 309.248 140.781 296.937Z" fill="#F2F2F2"/>
<path d="M505.611 220.23L509.574 217.772C509.952 217.539 510.324 217.288 510.702 217.049C502.266 215.599 494.574 211.329 488.892 204.94C483.21 198.551 479.875 190.423 479.435 181.892C478.995 173.361 481.477 164.934 486.472 157.997C491.467 151.06 498.679 146.024 506.921 143.719L506.726 159.23L515.264 142.36H515.371C520.318 142.13 525.263 142.874 529.922 144.55C534.581 146.226 538.864 148.802 542.526 152.13C546.187 155.458 549.156 159.473 551.263 163.946C553.369 168.419 554.572 173.262 554.802 178.199C554.84 178.916 554.802 179.626 554.802 180.337C557.77 176.954 560.473 173.326 562.256 169.352C565.867 161.311 565.936 152.194 565.652 141.122C565.085 119.172 564.134 97.0594 562.899 75.0157C553.983 74.0252 545.714 69.8958 539.575 63.3688C533.436 56.8419 529.829 48.3449 529.403 39.4036C529.353 38.253 529.372 37.115 529.403 35.9895C529.403 35.7066 529.403 35.4237 529.447 35.147C529.523 34.053 529.624 32.9715 529.794 31.9027C529.794 31.7266 529.857 31.5569 529.888 31.3871C530.04 30.4817 530.229 29.5889 530.443 28.7024C530.525 28.3754 530.607 28.0736 530.695 27.7152C530.96 26.7596 531.249 25.829 531.59 24.8796C531.703 24.5715 531.835 24.2509 531.955 23.9616C532.22 23.2763 532.51 22.5973 532.818 21.9308C532.982 21.5787 533.14 21.2266 533.316 20.8808C533.36 20.7928 533.392 20.6985 533.442 20.6104C537.422 12.7642 544.032 6.55825 552.122 3.07183C560.213 -0.414587 569.272 -0.960851 577.725 1.52805L577.473 21.7107L585.916 5.03644C592.861 9.00498 598.353 15.0848 601.591 22.3884C604.828 29.6921 605.641 37.8371 603.911 45.6345H603.949C603.893 45.9048 603.811 46.1563 603.748 46.4267C603.628 46.9234 603.502 47.4138 603.363 47.9042C603.187 48.533 602.985 49.1617 602.777 49.7905C602.62 50.2494 602.469 50.7147 602.292 51.1737C602.034 51.8402 601.744 52.4878 601.454 53.1354C601.284 53.5126 601.133 53.9024 600.95 54.2734C600.471 55.2501 599.95 56.1995 599.387 57.1216C599.192 57.4486 598.972 57.7504 598.757 58.071C598.354 58.6998 597.951 59.3285 597.497 59.9132C597.226 60.2842 596.936 60.6363 596.653 61.001C596.237 61.5228 595.815 62.0384 595.393 62.5351C595.084 62.8935 594.763 63.233 594.441 63.5788C593.981 64.0629 593.502 64.5345 593.011 64.9998C592.69 65.3079 592.381 65.6285 592.022 65.9177C591.467 66.4082 590.888 66.8797 590.302 67.3387C590.005 67.5651 589.716 67.8103 589.413 68.0366C588.518 68.6654 587.598 69.2941 586.647 69.8914C586.471 70.0046 586.275 70.0926 586.099 70.1995C585.299 70.6648 584.492 71.1049 583.66 71.5136C583.301 71.6896 582.936 71.8405 582.57 72.004C581.89 72.3121 581.203 72.6327 580.497 72.8717C580.088 73.0288 579.672 73.1734 579.237 73.3181C578.544 73.5507 577.838 73.7645 577.126 73.9468C576.71 74.06 576.288 74.1794 575.866 74.28C575.097 74.4624 574.31 74.6133 573.516 74.7516H573.365C573.881 84.0528 574.343 93.3561 574.751 102.662C576.997 98.0522 580.163 93.9496 584.056 90.6058C587.948 87.2619 592.485 84.7473 597.386 83.2163C602.288 81.6854 607.452 81.1705 612.56 81.7032C617.669 82.236 622.614 83.8051 627.093 86.3142L620.426 104.548L634.143 91.407C641.496 98.1155 645.879 107.462 646.329 117.393C646.505 120.877 646.182 124.368 645.372 127.761C643.648 135.102 639.753 141.757 634.193 146.863C628.632 151.968 621.663 155.289 614.188 156.395C606.714 157.5 599.079 156.339 592.274 153.062C585.469 149.784 579.807 144.543 576.024 138.016C576.024 138.959 576.093 139.902 576.112 140.851C576.364 150.622 576.679 162.782 571.796 173.64C568.488 180.997 563.17 186.97 557.934 192.327C554.512 195.816 550.965 199.186 547.329 202.45C543.753 207.248 539.084 211.127 533.707 213.767C527.733 218.363 521.546 222.683 515.15 226.669L511.156 229.146C507.564 231.365 503.884 233.648 500.28 236.018C500.91 235.955 501.541 235.886 502.171 235.855C510.167 235.483 518.075 237.658 524.751 242.066C531.426 246.474 536.525 252.886 539.308 260.376L515.743 279.508L541.665 273.51C541.657 279.874 540.032 286.132 536.944 291.7C533.855 297.268 529.402 301.964 524.002 305.349C518.601 308.734 512.429 310.698 506.062 311.058C499.694 311.418 493.339 310.161 487.59 307.406C488.17 308.135 488.754 308.86 489.342 309.581C490.501 311.019 491.646 312.448 492.776 313.869C508.112 333.247 512.378 351.651 504.785 365.678L495.548 360.698C502.939 347.048 491.825 329.569 484.541 320.364C483.432 318.96 482.306 317.556 481.163 316.152C471.365 304.004 460.263 290.235 460.534 273.347C460.944 247.857 485.713 232.541 505.611 220.23Z" fill="#F2F2F2"/>
<path d="M404.991 466C577.309 466 717 456.711 717 445.251C717 433.792 577.309 424.503 404.991 424.503C232.673 424.503 92.9824 433.792 92.9824 445.251C92.9824 456.711 232.673 466 404.991 466Z" fill="#F2F2F2"/>
<path d="M415.469 445.88L303.193 444.447L303.521 441.573L308.952 394.172H407.555L414.808 441.573L415.362 445.164L415.469 445.88Z" fill="#2F2E41"/>
<path opacity="0.1" d="M415.362 445.163H359.328L303.193 444.447L303.521 441.573H414.808L415.362 445.163Z" fill="black"/>
<path d="M433.465 442.29H284.479V445.88H433.465V442.29Z" fill="#3F3D56"/>
<path d="M575.613 109.471C575.619 108.243 575.382 107.026 574.917 105.889C574.451 104.753 573.766 103.719 572.9 102.847C572.034 101.974 571.005 101.281 569.87 100.806C568.736 100.33 567.518 100.083 566.288 100.077H150.226C148.995 100.083 147.778 100.33 146.644 100.806C145.509 101.281 144.479 101.974 143.614 102.847C142.748 103.719 142.062 104.753 141.597 105.889C141.131 107.026 140.895 108.243 140.9 109.471V361.132H575.613V109.471Z" fill="#3F3D56"/>
<path d="M140.901 358.623V388.099C140.901 390.567 141.884 392.933 143.633 394.679C145.382 396.424 147.753 397.404 150.227 397.404H566.289C568.762 397.404 571.134 396.424 572.883 394.679C574.632 392.933 575.614 390.567 575.614 388.099V358.623H140.901Z" fill="#3F3D56"/>
<path d="M559.774 115.877H158.891V342.106H559.774V115.877Z" fill="#2F2E41"/>
<path d="M360.393 386.219C361.865 386.22 363.319 385.888 364.643 385.246C365.967 384.604 367.127 383.671 368.036 382.515C368.314 382.162 368.567 381.79 368.793 381.402L363.462 380.528L369.227 380.572C369.779 379.371 370.08 378.071 370.113 376.75C370.145 375.429 369.908 374.116 369.416 372.889L361.679 376.894L368.811 371.663C368.142 370.514 367.242 369.515 366.169 368.728C365.096 367.94 363.872 367.381 362.573 367.086C361.274 366.79 359.928 366.765 358.619 367.01C357.31 367.255 356.065 367.767 354.963 368.513C353.86 369.258 352.923 370.222 352.209 371.345C351.495 372.467 351.021 373.724 350.814 375.037C350.608 376.35 350.675 377.692 351.01 378.978C351.345 380.265 351.942 381.469 352.763 382.515C353.671 383.669 354.829 384.602 356.151 385.243C357.473 385.885 358.924 386.218 360.393 386.219Z" fill="#2F80ED"/>
<path opacity="0.1" d="M370.128 397.404L414.921 442.29L408.047 397.404H370.128Z" fill="black"/>
<path d="M490.432 428.036L502.498 420.995C500.864 418.217 498.779 415.729 496.33 413.632L473.577 420.693L491.402 410.23C486.988 407.818 482.021 406.593 476.988 406.678C471.956 406.763 467.033 408.154 462.703 410.714C458.373 413.274 454.785 416.915 452.294 421.278C449.802 425.642 448.492 430.578 448.493 435.6C448.493 451.577 461.473 452.13 477.477 452.13C493.482 452.13 506.461 451.577 506.461 435.6C506.466 431.559 505.621 427.562 503.979 423.868L490.432 428.036Z" fill="#57B894"/>
<path opacity="0.1" d="M493.507 443.567C492.22 442.283 490.783 441.158 489.228 440.215C487.042 438.763 484.774 437.285 482.19 436.789C479.928 436.355 477.584 436.719 475.259 436.594C471.247 436.348 467.471 434.62 464.667 431.746C463.017 430.048 461.725 427.974 459.74 426.66C457.604 425.264 454.895 424.962 452.368 425.308C451.631 425.417 450.901 425.569 450.182 425.76C449.044 428.906 448.464 432.225 448.468 435.569C448.468 451.545 461.448 452.099 477.452 452.099C485.221 452.099 492.278 451.967 497.483 450.005L496.613 448.383C495.786 446.653 494.742 445.035 493.507 443.567Z" fill="black"/>
<path opacity="0.3" d="M190.023 203.153H176.696V207.19H190.023V203.153Z" fill="#2F80ED"/>
<path opacity="0.3" d="M545.616 203.273H532.289V207.309H545.616V203.273Z" fill="#2F80ED"/>
<path opacity="0.3" d="M190.143 231.529H176.816V235.565H190.143V231.529Z" fill="#2F80ED"/>
<path opacity="0.3" d="M190.263 259.904H176.937V263.94H190.263V259.904Z" fill="#2F80ED"/>
<path opacity="0.3" d="M190.382 288.273H177.056V292.309H190.382V288.273Z" fill="#2F80ED"/>
<g opacity="0.2">
<path opacity="0.2" d="M193.804 205.096H190.023V205.253H193.804V205.096Z" fill="#F2F2F2"/>
<path opacity="0.2" d="M520.841 205.253H513.412V205.096H520.841V205.253ZM505.977 205.253H498.548V205.096H505.977V205.253ZM491.113 205.253H483.678V205.096H491.113V205.253ZM476.249 205.253H468.814V205.096H476.249V205.253ZM461.385 205.253H453.95V205.096H461.385V205.253ZM446.515 205.253H439.086V205.096H446.515V205.253ZM431.651 205.253H424.216V205.096H431.651V205.253ZM416.787 205.253H409.352V205.096H416.787V205.253ZM401.923 205.253H394.488V205.096H401.923V205.253ZM387.053 205.253H379.624V205.096H387.053V205.253ZM372.189 205.253H364.754V205.096H372.189V205.253ZM357.326 205.253H349.89V205.096H357.326V205.253ZM342.462 205.253H335.027V205.096H342.462V205.253ZM327.591 205.253H320.163V205.096H327.591V205.253ZM312.728 205.253H305.299V205.096H312.728V205.253ZM297.864 205.253H290.454V205.096H297.889L297.864 205.253ZM283 205.253H275.565V205.096H283V205.253ZM268.13 205.253H260.701V205.096H268.13V205.253ZM253.266 205.253H245.837V205.096H253.279L253.266 205.253ZM238.402 205.253H230.967V205.096H238.402V205.253ZM223.538 205.253H216.103V205.096H223.538V205.253ZM208.668 205.253H201.239V205.096H208.668V205.253Z" fill="#F2F2F2"/>
<path opacity="0.2" d="M532.056 205.096H528.275V205.253H532.056V205.096Z" fill="#F2F2F2"/>
<path opacity="0.2" d="M193.804 205.096H190.023V205.253H193.804V205.096Z" fill="#F2F2F2"/>
<path opacity="0.2" d="M520.841 205.253H513.412V205.096H520.841V205.253ZM505.977 205.253H498.548V205.096H505.977V205.253ZM491.113 205.253H483.678V205.096H491.113V205.253ZM476.249 205.253H468.814V205.096H476.249V205.253ZM461.385 205.253H453.95V205.096H461.385V205.253ZM446.515 205.253H439.086V205.096H446.515V205.253ZM431.651 205.253H424.216V205.096H431.651V205.253ZM416.787 205.253H409.352V205.096H416.787V205.253ZM401.923 205.253H394.488V205.096H401.923V205.253ZM387.053 205.253H379.624V205.096H387.053V205.253ZM372.189 205.253H364.754V205.096H372.189V205.253ZM357.326 205.253H349.89V205.096H357.326V205.253ZM342.462 205.253H335.027V205.096H342.462V205.253ZM327.591 205.253H320.163V205.096H327.591V205.253ZM312.728 205.253H305.299V205.096H312.728V205.253ZM297.864 205.253H290.454V205.096H297.889L297.864 205.253ZM283 205.253H275.565V205.096H283V205.253ZM268.13 205.253H260.701V205.096H268.13V205.253ZM253.266 205.253H245.837V205.096H253.279L253.266 205.253ZM238.402 205.253H230.967V205.096H238.402V205.253ZM223.538 205.253H216.103V205.096H223.538V205.253ZM208.668 205.253H201.239V205.096H208.668V205.253Z" fill="#F2F2F2"/>
<path opacity="0.2" d="M532.056 205.096H528.275V205.253H532.056V205.096Z" fill="#F2F2F2"/>
</g>
<path opacity="0.3" d="M190.023 174.86H176.696V178.896H190.023V174.86Z" fill="#2F80ED"/>
<path opacity="0.3" d="M545.616 174.979H532.289V179.016H545.616V174.979Z" fill="#2F80ED"/>
<g opacity="0.2">
<path opacity="0.2" d="M193.804 176.803H190.023V176.96H193.804V176.803Z" fill="#F2F2F2"/>
<path opacity="0.2" d="M520.841 176.96H513.412V176.803H520.841V176.96ZM505.977 176.96H498.548V176.803H505.977V176.96ZM491.113 176.96H483.678V176.803H491.113V176.96ZM476.249 176.96H468.814V176.803H476.249V176.96ZM461.385 176.96H453.95V176.803H461.385V176.96ZM446.515 176.96H439.086V176.803H446.515V176.96ZM431.651 176.96H424.216V176.803H431.651V176.96ZM416.787 176.96H409.352V176.803H416.787V176.96ZM401.923 176.96H394.488V176.803H401.923V176.96ZM387.053 176.96H379.624V176.803H387.053V176.96ZM372.189 176.96H364.754V176.803H372.189V176.96ZM357.326 176.96H349.89V176.803H357.326V176.96ZM342.462 176.96H335.027V176.803H342.462V176.96ZM327.591 176.96H320.163V176.803H327.591V176.96ZM312.728 176.96H305.299V176.803H312.728V176.96ZM297.864 176.96H290.454V176.803H297.889L297.864 176.96ZM283 176.96H275.565V176.803H283V176.96ZM268.13 176.96H260.701V176.803H268.13V176.96ZM253.266 176.96H245.837V176.803H253.279L253.266 176.96ZM238.402 176.96H230.967V176.803H238.402V176.96ZM223.538 176.96H216.103V176.803H223.538V176.96ZM208.668 176.96H201.239V176.803H208.668V176.96Z" fill="#F2F2F2"/>
<path opacity="0.2" d="M532.056 176.803H528.275V176.96H532.056V176.803Z" fill="#F2F2F2"/>
</g>
<path opacity="0.3" d="M545.616 231.529H532.289V235.565H545.616V231.529Z" fill="#2F80ED"/>
<g opacity="0.2">
<path opacity="0.2" d="M193.804 233.353H190.023V233.51H193.804V233.353Z" fill="#F2F2F2"/>
<path opacity="0.2" d="M520.841 233.503H513.412V233.346H520.841V233.503ZM505.977 233.503H498.548V233.346H505.977V233.503ZM491.113 233.503H483.678V233.346H491.113V233.503ZM476.249 233.503H468.814V233.346H476.249V233.503ZM461.385 233.503H453.95V233.346H461.385V233.503ZM446.515 233.503H439.086V233.346H446.515V233.503ZM431.651 233.503H424.216V233.346H431.651V233.503ZM416.787 233.503H409.352V233.346H416.787V233.503ZM401.923 233.503H394.488V233.346H401.923V233.503ZM387.053 233.503H379.624V233.346H387.053V233.503ZM372.189 233.503H364.754V233.346H372.189V233.503ZM357.326 233.503H349.89V233.346H357.326V233.503ZM342.462 233.503H335.027V233.346H342.462V233.503ZM327.591 233.503H320.163V233.346H327.591V233.503ZM312.728 233.503H305.299V233.346H312.728V233.503ZM297.864 233.503H290.454V233.346H297.889L297.864 233.503ZM283 233.503H275.565V233.346H283V233.503ZM268.13 233.503H260.701V233.346H268.13V233.503ZM253.266 233.503H245.837V233.346H253.279L253.266 233.503ZM238.402 233.503H230.967V233.346H238.402V233.503ZM223.538 233.503H216.103V233.346H223.538V233.503ZM208.668 233.503H201.239V233.346H208.668V233.503Z" fill="#F2F2F2"/>
<path opacity="0.2" d="M532.056 233.352H528.275V233.509H532.056V233.352Z" fill="#F2F2F2"/>
<path opacity="0.2" d="M193.804 233.353H190.023V233.51H193.804V233.353Z" fill="#F2F2F2"/>
<path opacity="0.2" d="M520.841 233.503H513.412V233.346H520.841V233.503ZM505.977 233.503H498.548V233.346H505.977V233.503ZM491.113 233.503H483.678V233.346H491.113V233.503ZM476.249 233.503H468.814V233.346H476.249V233.503ZM461.385 233.503H453.95V233.346H461.385V233.503ZM446.515 233.503H439.086V233.346H446.515V233.503ZM431.651 233.503H424.216V233.346H431.651V233.503ZM416.787 233.503H409.352V233.346H416.787V233.503ZM401.923 233.503H394.488V233.346H401.923V233.503ZM387.053 233.503H379.624V233.346H387.053V233.503ZM372.189 233.503H364.754V233.346H372.189V233.503ZM357.326 233.503H349.89V233.346H357.326V233.503ZM342.462 233.503H335.027V233.346H342.462V233.503ZM327.591 233.503H320.163V233.346H327.591V233.503ZM312.728 233.503H305.299V233.346H312.728V233.503ZM297.864 233.503H290.454V233.346H297.889L297.864 233.503ZM283 233.503H275.565V233.346H283V233.503ZM268.13 233.503H260.701V233.346H268.13V233.503ZM253.266 233.503H245.837V233.346H253.279L253.266 233.503ZM238.402 233.503H230.967V233.346H238.402V233.503ZM223.538 233.503H216.103V233.346H223.538V233.503ZM208.668 233.503H201.239V233.346H208.668V233.503Z" fill="#F2F2F2"/>
<path opacity="0.2" d="M532.056 233.352H528.275V233.509H532.056V233.352Z" fill="#F2F2F2"/>
</g>
<path opacity="0.3" d="M545.616 259.785H532.289V263.821H545.616V259.785Z" fill="#2F80ED"/>
<g opacity="0.2">
<path opacity="0.2" d="M193.804 261.602H190.023V261.759H193.804V261.602Z" fill="#F2F2F2"/>
<path opacity="0.2" d="M520.841 261.759H513.412V261.602H520.841V261.759ZM505.977 261.759H498.548V261.602H505.977V261.759ZM491.113 261.759H483.678V261.602H491.113V261.759ZM476.249 261.759H468.814V261.602H476.249V261.759ZM461.385 261.759H453.95V261.602H461.385V261.759ZM446.515 261.759H439.086V261.602H446.515V261.759ZM431.651 261.759H424.216V261.602H431.651V261.759ZM416.787 261.759H409.352V261.602H416.787V261.759ZM401.923 261.759H394.488V261.602H401.923V261.759ZM387.053 261.759H379.624V261.602H387.053V261.759ZM372.189 261.759H364.754V261.602H372.189V261.759ZM357.326 261.759H349.89V261.602H357.326V261.759ZM342.462 261.759H335.027V261.602H342.462V261.759ZM327.591 261.759H320.163V261.602H327.591V261.759ZM312.728 261.759H305.299V261.602H312.728V261.759ZM297.864 261.759H290.454V261.602H297.889L297.864 261.759ZM283 261.759H275.565V261.602H283V261.759ZM268.13 261.759H260.701V261.602H268.13V261.759ZM253.266 261.759H245.837V261.602H253.279L253.266 261.759ZM238.402 261.759H230.967V261.602H238.402V261.759ZM223.538 261.759H216.103V261.602H223.538V261.759ZM208.668 261.759H201.239V261.602H208.668V261.759Z" fill="#F2F2F2"/>
<path opacity="0.2" d="M532.056 261.602H528.275V261.759H532.056V261.602Z" fill="#F2F2F2"/>
<path opacity="0.2" d="M193.804 261.602H190.023V261.759H193.804V261.602Z" fill="#F2F2F2"/>
<path opacity="0.2" d="M520.841 261.759H513.412V261.602H520.841V261.759ZM505.977 261.759H498.548V261.602H505.977V261.759ZM491.113 261.759H483.678V261.602H491.113V261.759ZM476.249 261.759H468.814V261.602H476.249V261.759ZM461.385 261.759H453.95V261.602H461.385V261.759ZM446.515 261.759H439.086V261.602H446.515V261.759ZM431.651 261.759H424.216V261.602H431.651V261.759ZM416.787 261.759H409.352V261.602H416.787V261.759ZM401.923 261.759H394.488V261.602H401.923V261.759ZM387.053 261.759H379.624V261.602H387.053V261.759ZM372.189 261.759H364.754V261.602H372.189V261.759ZM357.326 261.759H349.89V261.602H357.326V261.759ZM342.462 261.759H335.027V261.602H342.462V261.759ZM327.591 261.759H320.163V261.602H327.591V261.759ZM312.728 261.759H305.299V261.602H312.728V261.759ZM297.864 261.759H290.454V261.602H297.889L297.864 261.759ZM283 261.759H275.565V261.602H283V261.759ZM268.13 261.759H260.701V261.602H268.13V261.759ZM253.266 261.759H245.837V261.602H253.279L253.266 261.759ZM238.402 261.759H230.967V261.602H238.402V261.759ZM223.538 261.759H216.103V261.602H223.538V261.759ZM208.668 261.759H201.239V261.602H208.668V261.759Z" fill="#F2F2F2"/>
<path opacity="0.2" d="M532.056 261.602H528.275V261.759H532.056V261.602Z" fill="#F2F2F2"/>
</g>
<path opacity="0.3" d="M545.616 288.034H532.289V292.071H545.616V288.034Z" fill="#2F80ED"/>
<g opacity="0.2">
<path opacity="0.2" d="M193.804 289.857H190.023V290.015H193.804V289.857Z" fill="#F2F2F2"/>
<path opacity="0.2" d="M520.841 290.015H513.412V289.857H520.841V290.015ZM505.977 290.015H498.548V289.857H505.977V290.015ZM491.113 290.015H483.678V289.857H491.113V290.015ZM476.249 290.015H468.814V289.857H476.249V290.015ZM461.385 290.015H453.95V289.857H461.385V290.015ZM446.515 290.015H439.086V289.857H446.515V290.015ZM431.651 290.015H424.216V289.857H431.651V290.015ZM416.787 290.015H409.352V289.857H416.787V290.015ZM401.923 290.015H394.488V289.857H401.923V290.015ZM387.053 290.015H379.624V289.857H387.053V290.015ZM372.189 290.015H364.754V289.857H372.189V290.015ZM357.326 290.015H349.89V289.857H357.326V290.015ZM342.462 290.015H335.027V289.857H342.462V290.015ZM327.591 290.015H320.163V289.857H327.591V290.015ZM312.728 290.015H305.299V289.857H312.728V290.015ZM297.864 290.015H290.454V289.857H297.889L297.864 290.015ZM283 290.015H275.565V289.857H283V290.015ZM268.13 290.015H260.701V289.857H268.13V290.015ZM253.266 290.015H245.837V289.857H253.279L253.266 290.015ZM238.402 290.015H230.967V289.857H238.402V290.015ZM223.538 290.015H216.103V289.857H223.538V290.015ZM208.668 290.015H201.239V289.857H208.668V290.015Z" fill="#F2F2F2"/>
<path opacity="0.2" d="M532.056 289.857H528.275V290.015H532.056V289.857Z" fill="#F2F2F2"/>
<path opacity="0.2" d="M193.804 289.857H190.023V290.015H193.804V289.857Z" fill="#F2F2F2"/>
<path opacity="0.2" d="M520.841 290.015H513.412V289.857H520.841V290.015ZM505.977 290.015H498.548V289.857H505.977V290.015ZM491.113 290.015H483.678V289.857H491.113V290.015ZM476.249 290.015H468.814V289.857H476.249V290.015ZM461.385 290.015H453.95V289.857H461.385V290.015ZM446.515 290.015H439.086V289.857H446.515V290.015ZM431.651 290.015H424.216V289.857H431.651V290.015ZM416.787 290.015H409.352V289.857H416.787V290.015ZM401.923 290.015H394.488V289.857H401.923V290.015ZM387.053 290.015H379.624V289.857H387.053V290.015ZM372.189 290.015H364.754V289.857H372.189V290.015ZM357.326 290.015H349.89V289.857H357.326V290.015ZM342.462 290.015H335.027V289.857H342.462V290.015ZM327.591 290.015H320.163V289.857H327.591V290.015ZM312.728 290.015H305.299V289.857H312.728V290.015ZM297.864 290.015H290.454V289.857H297.889L297.864 290.015ZM283 290.015H275.565V289.857H283V290.015ZM268.13 290.015H260.701V289.857H268.13V290.015ZM253.266 290.015H245.837V289.857H253.279L253.266 290.015ZM238.402 290.015H230.967V289.857H238.402V290.015ZM223.538 290.015H216.103V289.857H223.538V290.015ZM208.668 290.015H201.239V289.857H208.668V290.015Z" fill="#F2F2F2"/>
<path opacity="0.2" d="M532.056 289.857H528.275V290.015H532.056V289.857Z" fill="#F2F2F2"/>
</g>
<path d="M233.468 176.998V290.291" stroke="#F2F2F2" stroke-width="0.1" stroke-miterlimit="10"/>
<path d="M279.465 176.998V290.291" stroke="#F2F2F2" stroke-width="0.1" stroke-miterlimit="10"/>
<path d="M325.461 176.998V290.291" stroke="#F2F2F2" stroke-width="0.1" stroke-miterlimit="10"/>
<path d="M371.458 176.998V290.291" stroke="#F2F2F2" stroke-width="0.1" stroke-miterlimit="10"/>
<path d="M417.454 176.998V290.291" stroke="#F2F2F2" stroke-width="0.1" stroke-miterlimit="10"/>
<path d="M463.451 176.998V290.291" stroke="#F2F2F2" stroke-width="0.1" stroke-miterlimit="10"/>
<path d="M509.448 176.998V290.291" stroke="#F2F2F2" stroke-width="0.1" stroke-miterlimit="10"/>
<path opacity="0.3" d="M519.397 169.352L514.136 174.822C514.029 174.937 513.94 175.066 513.871 175.206L510.607 181.915C510.477 182.184 510.269 182.408 510.009 182.557C509.749 182.707 509.451 182.774 509.152 182.751L508.106 182.669C507.802 182.647 507.512 182.533 507.276 182.342C507.039 182.151 506.867 181.892 506.783 181.6L505.775 178.117C505.687 177.812 505.503 177.544 505.252 177.35C505 177.156 504.694 177.048 504.376 177.04C504.058 177.032 503.747 177.126 503.486 177.307C503.225 177.488 503.029 177.748 502.927 178.048L501.232 183.002C501.131 183.298 500.94 183.555 500.686 183.736C500.432 183.918 500.127 184.015 499.814 184.015H493.343C492.988 184.013 492.644 183.886 492.374 183.656C492.104 183.425 491.925 183.107 491.868 182.757L490.041 171.345C489.993 171.033 489.846 170.745 489.622 170.521C489.399 170.298 489.11 170.151 488.797 170.102C488.484 170.053 488.164 170.104 487.883 170.249C487.601 170.393 487.373 170.623 487.231 170.905L477.861 189.359C477.765 189.55 477.628 189.718 477.461 189.852C477.293 189.985 477.099 190.081 476.891 190.133C476.683 190.185 476.466 190.192 476.255 190.152C476.044 190.113 475.844 190.029 475.669 189.906L470.099 185.983C469.795 185.77 469.423 185.676 469.054 185.72C468.686 185.764 468.346 185.943 468.101 186.221L465.991 188.655C465.928 188.727 465.873 188.805 465.827 188.887L460.194 198.614C460.051 198.863 459.838 199.066 459.582 199.196C459.326 199.327 459.037 199.38 458.751 199.35L455.317 199.01C455.077 198.987 454.835 199.021 454.611 199.111L451.536 200.337C451.18 200.471 450.786 200.464 450.435 200.318C450.084 200.172 449.801 199.898 449.646 199.551L448.972 198.01C448.85 197.735 448.648 197.502 448.392 197.342C448.135 197.183 447.837 197.105 447.535 197.118L444.019 197.281C443.802 197.29 443.589 197.347 443.396 197.449C443.203 197.55 443.035 197.692 442.904 197.866L441.908 199.161C441.745 199.375 441.526 199.54 441.276 199.64C441.025 199.739 440.752 199.769 440.486 199.727C440.22 199.684 439.971 199.571 439.764 199.398C439.557 199.225 439.401 199 439.312 198.746L438.052 195.194C437.975 194.973 437.846 194.773 437.676 194.611C437.507 194.449 437.301 194.329 437.077 194.261C436.852 194.193 436.614 194.179 436.383 194.22C436.152 194.26 435.934 194.355 435.746 194.496L429.76 198.972L423.144 204.298C422.918 204.479 422.644 204.591 422.356 204.62C422.067 204.649 421.777 204.594 421.519 204.461L416.383 201.802C416.108 201.661 415.795 201.608 415.489 201.651L405.086 203.103C404.784 203.144 404.502 203.275 404.277 203.479C404.052 203.684 403.895 203.952 403.826 204.248L401.98 212.251C401.922 212.501 401.801 212.732 401.628 212.921C401.455 213.111 401.236 213.252 400.992 213.333C400.748 213.413 400.488 213.429 400.236 213.38C399.984 213.33 399.749 213.216 399.554 213.05C399.381 212.903 399.177 212.797 398.957 212.74C398.737 212.683 398.507 212.677 398.284 212.722C398.061 212.766 397.852 212.861 397.671 212.999C397.49 213.136 397.343 213.313 397.241 213.515L395.824 216.351C395.717 216.56 395.563 216.742 395.374 216.882C395.185 217.022 394.965 217.115 394.734 217.156L391.514 217.69C391.306 217.726 391.109 217.805 390.934 217.923L385.862 221.293C385.618 221.457 385.33 221.544 385.036 221.544H382.661C382.369 221.545 382.083 221.46 381.839 221.3C381.595 221.14 381.403 220.913 381.287 220.645L380.657 219.142C380.577 218.96 380.461 218.796 380.316 218.659C380.171 218.523 380 218.416 379.814 218.347C379.627 218.277 379.428 218.245 379.229 218.253C379.03 218.262 378.834 218.309 378.654 218.394L373.147 220.966C372.925 221.07 372.68 221.118 372.435 221.106C372.19 221.094 371.952 221.022 371.742 220.897L369.221 219.381C368.989 219.242 368.723 219.169 368.452 219.168H362.889C362.595 219.169 362.308 219.256 362.063 219.419L356.512 223.097C356.298 223.239 356.051 223.323 355.795 223.342C355.539 223.361 355.283 223.313 355.05 223.204L352.53 222.016C352.236 221.879 351.906 221.841 351.589 221.908C351.272 221.975 350.985 222.143 350.772 222.387L349.575 223.751C349.418 223.932 349.22 224.072 348.998 224.16C348.775 224.248 348.534 224.281 348.296 224.257C348.058 224.232 347.829 224.15 347.63 224.019C347.43 223.887 347.265 223.709 347.149 223.5L346.79 222.871C346.692 222.697 346.561 222.545 346.404 222.423C346.247 222.3 346.066 222.211 345.874 222.159C345.681 222.108 345.48 222.095 345.282 222.122C345.085 222.149 344.895 222.216 344.723 222.318L340.357 224.902C340.13 225.031 339.874 225.1 339.613 225.1C339.352 225.1 339.096 225.031 338.87 224.902L337.068 223.902C336.864 223.788 336.637 223.723 336.403 223.713C336.17 223.703 335.938 223.749 335.725 223.846L334.012 224.625C333.819 224.711 333.61 224.756 333.399 224.757C333.188 224.757 332.979 224.713 332.786 224.628C332.592 224.542 332.419 224.417 332.278 224.261C332.136 224.105 332.029 223.92 331.964 223.72L330.855 220.425C330.76 220.123 330.571 219.859 330.314 219.672C330.058 219.485 329.748 219.385 329.431 219.388H327.818C327.564 219.389 327.314 219.324 327.093 219.199L320.899 215.81C320.647 215.674 320.361 215.613 320.075 215.634C319.79 215.655 319.516 215.758 319.286 215.93L314.743 219.325C314.485 219.518 314.171 219.622 313.849 219.62H308.134C307.84 219.621 307.552 219.708 307.308 219.872L306.237 220.582C306.061 220.7 305.862 220.779 305.652 220.814C305.443 220.849 305.229 220.839 305.024 220.785C304.819 220.731 304.628 220.634 304.463 220.5C304.299 220.367 304.164 220.2 304.07 220.01L303.811 219.501C303.689 219.252 303.499 219.042 303.262 218.895C303.026 218.748 302.754 218.671 302.476 218.671H299.609C299.381 218.671 299.157 218.724 298.952 218.824C298.748 218.924 298.57 219.07 298.43 219.249L296.653 221.519C296.506 221.707 296.316 221.858 296.098 221.957C295.881 222.056 295.642 222.102 295.403 222.09C295.164 222.079 294.931 222.01 294.725 221.89C294.518 221.769 294.343 221.601 294.215 221.4L293.711 220.614C293.503 220.285 293.174 220.05 292.794 219.961C292.415 219.871 292.016 219.934 291.682 220.136L290.208 221.016C289.957 221.166 289.667 221.239 289.375 221.227C289.083 221.215 288.801 221.117 288.563 220.947L282.621 216.653C282.515 216.578 282.401 216.514 282.281 216.464L277.637 214.685C277.276 214.553 276.877 214.566 276.525 214.721C276.173 214.876 275.894 215.16 275.747 215.515L272.515 223.374C272.468 223.484 272.436 223.601 272.42 223.72L271.374 230.799C271.328 231.099 271.192 231.377 270.984 231.598L268.772 233.968C268.543 234.21 268.239 234.369 267.91 234.42C267.58 234.471 267.243 234.412 266.951 234.251L263.114 232.126C262.923 232.019 262.711 231.956 262.493 231.94C262.274 231.924 262.055 231.956 261.851 232.034C261.646 232.112 261.462 232.234 261.31 232.391C261.158 232.548 261.042 232.737 260.971 232.943L258.539 240.042C258.484 240.197 258.456 240.361 258.457 240.526V245.003C258.457 245.293 258.371 245.577 258.211 245.819C258.051 246.062 257.823 246.252 257.556 246.367L253.656 248.09C253.439 248.183 253.204 248.224 252.968 248.208C252.733 248.193 252.504 248.122 252.301 248.002L249.365 246.279C249.073 246.108 248.73 246.042 248.395 246.09L243.247 246.826C242.953 246.868 242.652 246.821 242.385 246.691C242.118 246.561 241.896 246.354 241.747 246.097L240.878 244.613C240.69 244.293 240.389 244.055 240.033 243.946L237.696 243.217C237.423 243.131 237.132 243.124 236.855 243.199C236.579 243.274 236.331 243.426 236.14 243.638L232.895 247.235C232.639 247.517 232.285 247.692 231.905 247.725L227.117 248.128C226.895 248.14 226.679 248.205 226.487 248.316L218.138 253.107C217.877 253.255 217.578 253.321 217.28 253.298C216.981 253.274 216.696 253.162 216.462 252.975L214.093 251.089C213.827 250.879 213.499 250.764 213.16 250.762H204.188C203.964 250.763 203.742 250.713 203.54 250.616C203.338 250.519 203.161 250.378 203.022 250.202L200.76 247.386C200.624 247.217 200.454 247.08 200.26 246.984C200.066 246.888 199.854 246.835 199.637 246.829C199.421 246.823 199.206 246.865 199.007 246.95C198.808 247.035 198.63 247.162 198.485 247.323L195.763 250.341C195.517 250.613 195.38 250.967 195.379 251.334V288.832C195.379 289.228 195.536 289.607 195.816 289.886C196.096 290.166 196.476 290.323 196.872 290.323H520.569C520.766 290.323 520.96 290.284 521.142 290.209C521.324 290.133 521.488 290.023 521.627 289.884C521.766 289.745 521.876 289.58 521.951 289.398C522.025 289.217 522.063 289.022 522.062 288.826L521.974 170.415C521.979 170.115 521.893 169.821 521.727 169.57C521.562 169.32 521.325 169.124 521.047 169.01C520.77 168.895 520.464 168.867 520.169 168.928C519.875 168.989 519.606 169.137 519.397 169.352Z" fill="#2F80ED"/>
<path opacity="0.3" d="M519.107 217.91L514.23 221.155C514.059 221.27 513.908 221.412 513.783 221.576L510.752 225.568C510.569 225.805 510.331 225.995 510.059 226.121C509.788 226.248 509.49 226.309 509.19 226.298L508.2 226.247C507.861 226.231 507.533 226.121 507.251 225.93C506.97 225.739 506.747 225.475 506.606 225.166L505.976 223.827C505.835 223.512 505.609 223.244 505.322 223.051C505.036 222.859 504.701 222.751 504.356 222.74C504.011 222.729 503.669 222.815 503.371 222.988C503.073 223.162 502.829 223.415 502.668 223.72L501.408 226.128C501.251 226.423 501.016 226.67 500.728 226.842C500.44 227.014 500.111 227.104 499.776 227.103H493.526C493.114 227.104 492.713 226.968 492.388 226.714C492.064 226.461 491.834 226.106 491.736 225.707L490.237 219.715C490.153 219.381 489.978 219.077 489.73 218.837C489.482 218.598 489.172 218.432 488.835 218.36C488.498 218.287 488.147 218.31 487.822 218.426C487.498 218.543 487.212 218.747 486.998 219.017L477.988 230.385C477.733 230.708 477.378 230.936 476.978 231.033C476.578 231.13 476.157 231.09 475.782 230.919L469.992 228.31C469.689 228.168 469.352 228.112 469.02 228.146C468.687 228.18 468.369 228.304 468.101 228.505L466.028 230.033C465.929 230.106 465.838 230.191 465.757 230.284L460.288 236.326C460.104 236.537 459.875 236.703 459.617 236.811C459.36 236.92 459.081 236.969 458.801 236.955L455.229 236.729C455.034 236.717 454.839 236.734 454.649 236.779L451.429 237.603C451.062 237.698 450.674 237.678 450.319 237.545C449.964 237.413 449.658 237.173 449.444 236.861L449.079 236.32C448.904 236.066 448.669 235.86 448.393 235.72C448.118 235.581 447.812 235.513 447.504 235.521L443.912 235.628C443.498 235.635 443.099 235.786 442.784 236.056L441.902 236.792C441.693 236.966 441.448 237.093 441.184 237.162C440.921 237.231 440.645 237.241 440.377 237.192C440.109 237.142 439.855 237.033 439.634 236.874C439.413 236.714 439.23 236.508 439.098 236.27L438.166 234.585C437.938 234.173 437.562 233.863 437.113 233.719C436.665 233.576 436.178 233.608 435.753 233.811L429.71 236.71L423.025 240.155C422.807 240.267 422.568 240.334 422.324 240.353C422.079 240.371 421.833 240.34 421.601 240.262L416.276 238.502C416.037 238.423 415.784 238.393 415.533 238.414L405.225 239.288C404.875 239.324 404.542 239.456 404.264 239.671C403.986 239.885 403.773 240.173 403.649 240.501L402.156 244.663C402.066 244.913 401.923 245.141 401.736 245.331C401.549 245.52 401.324 245.667 401.074 245.762C400.825 245.856 400.559 245.896 400.293 245.877C400.027 245.859 399.769 245.784 399.535 245.657L399.472 245.625C399.089 245.414 398.643 245.345 398.215 245.433C397.786 245.521 397.403 245.758 397.134 246.103L395.962 247.6C395.651 247.989 395.198 248.24 394.702 248.298L391.476 248.643C391.294 248.662 391.116 248.706 390.947 248.775L385.837 250.957C385.607 251.051 385.361 251.101 385.112 251.102H382.655C382.354 251.102 382.058 251.028 381.792 250.888C381.527 250.748 381.299 250.545 381.13 250.297L380.777 249.781C380.556 249.459 380.238 249.215 379.868 249.085C379.499 248.955 379.098 248.946 378.723 249.058L372.995 250.787C372.603 250.905 372.181 250.89 371.798 250.743L369.139 249.725C368.938 249.646 368.725 249.603 368.509 249.599H362.801C362.553 249.599 362.309 249.65 362.082 249.75L356.411 252.152C356.013 252.323 355.566 252.348 355.151 252.221L352.347 251.385C352.074 251.303 351.786 251.286 351.505 251.334C351.224 251.382 350.958 251.494 350.728 251.661L349.499 252.56C349.127 252.832 348.667 252.955 348.209 252.905C347.75 252.855 347.328 252.635 347.023 252.29L346.84 252.083C346.593 251.8 346.264 251.6 345.899 251.509C345.535 251.418 345.151 251.441 344.799 251.573L340.231 253.315C339.824 253.463 339.377 253.463 338.971 253.315L336.967 252.598C336.601 252.472 336.205 252.461 335.833 252.567L333.942 253.114C333.528 253.233 333.086 253.204 332.691 253.031C332.296 252.859 331.975 252.555 331.781 252.171L331.075 250.756C330.922 250.45 330.686 250.193 330.394 250.014C330.103 249.834 329.767 249.738 329.425 249.737H327.786C327.572 249.741 327.359 249.707 327.156 249.637L320.799 247.411C320.57 247.329 320.328 247.294 320.085 247.307C319.843 247.32 319.606 247.381 319.387 247.486L314.743 249.712C314.493 249.831 314.22 249.893 313.943 249.895H308.077C307.828 249.896 307.582 249.945 307.353 250.039L306.155 250.555C305.781 250.713 305.364 250.744 304.97 250.643C304.576 250.542 304.227 250.314 303.975 249.995C303.803 249.774 303.582 249.595 303.33 249.471C303.078 249.348 302.801 249.284 302.52 249.285H299.558C299.131 249.284 298.717 249.431 298.386 249.7L296.666 251.108C296.313 251.4 295.862 251.549 295.404 251.526C294.945 251.503 294.512 251.309 294.19 250.982L293.799 250.592C293.547 250.339 293.226 250.164 292.876 250.089C292.526 250.015 292.161 250.043 291.827 250.171L290.113 250.831C289.645 251.006 289.126 250.988 288.67 250.781L282.64 247.989C282.534 247.939 282.422 247.901 282.306 247.876L277.574 246.713C277.201 246.62 276.808 246.646 276.451 246.789C276.093 246.931 275.79 247.182 275.583 247.505L272.609 252.133C272.496 252.311 272.412 252.506 272.364 252.711L271.463 256.641C271.355 257.09 271.086 257.483 270.706 257.748L268.741 259.093C268.501 259.258 268.226 259.363 267.938 259.4C267.65 259.437 267.357 259.405 267.083 259.307L263.038 257.873C262.615 257.724 262.152 257.734 261.736 257.901C261.32 258.067 260.979 258.379 260.776 258.779L258.646 262.752C258.506 263.02 258.433 263.318 258.432 263.62V265.412C258.431 265.814 258.297 266.205 258.053 266.525C257.808 266.845 257.466 267.077 257.078 267.185L253.536 268.166C253.161 268.272 252.761 268.254 252.396 268.116L249.309 266.952C249.048 266.852 248.768 266.814 248.489 266.839L243.165 267.323C242.881 267.351 242.595 267.312 242.329 267.209C242.063 267.106 241.825 266.943 241.634 266.732L241.004 266.034C240.742 265.741 240.389 265.542 240.002 265.469L237.576 264.978C237.328 264.931 237.073 264.934 236.827 264.987C236.58 265.04 236.346 265.142 236.14 265.286L232.945 267.556C232.659 267.756 232.323 267.874 231.975 267.895L227.079 268.153C226.894 268.165 226.711 268.203 226.537 268.266L218.037 271.41C217.799 271.5 217.545 271.539 217.29 271.524C217.036 271.509 216.788 271.44 216.563 271.322L214.105 270.065C213.846 269.933 213.559 269.864 213.267 269.863H204.131C203.709 269.863 203.3 269.719 202.972 269.455L200.76 267.688C200.447 267.438 200.06 267.296 199.658 267.285C199.257 267.273 198.863 267.393 198.536 267.625L196.167 269.31C195.927 269.481 195.732 269.707 195.597 269.968C195.462 270.229 195.392 270.519 195.392 270.813V288.487C195.392 288.975 195.586 289.444 195.932 289.79C196.279 290.135 196.748 290.329 197.238 290.329H520.216C520.706 290.329 521.176 290.135 521.522 289.79C521.868 289.444 522.062 288.975 522.062 288.487L521.974 219.47C521.979 219.134 521.891 218.804 521.722 218.515C521.552 218.226 521.307 217.988 521.012 217.828C520.717 217.667 520.384 217.59 520.048 217.605C519.712 217.619 519.387 217.725 519.107 217.91Z" fill="#2F80ED"/>
<path d="M520.412 221.846C522.847 221.846 524.822 219.875 524.822 217.445C524.822 215.014 522.847 213.043 520.412 213.043C517.976 213.043 516.001 215.014 516.001 217.445C516.001 219.875 517.976 221.846 520.412 221.846Z" fill="#2F80ED"/>
<path opacity="0.3" d="M520.128 260.986L514.136 262.979C514.021 263.018 513.911 263.071 513.808 263.136L510.519 265.305C510.28 265.461 509.998 265.54 509.713 265.531L507.665 265.481C507.474 265.477 507.287 265.434 507.113 265.355C506.94 265.277 506.785 265.163 506.657 265.022L505.397 263.639C505.271 263.501 505.12 263.389 504.951 263.31C504.782 263.231 504.598 263.186 504.412 263.179C504.225 263.171 504.039 263.2 503.864 263.265C503.689 263.33 503.529 263.43 503.393 263.557L501.269 265.544C501.012 265.79 500.669 265.927 500.312 265.927H492.952C492.69 265.929 492.432 265.857 492.21 265.719C491.987 265.581 491.807 265.383 491.692 265.148L490.01 261.797C489.922 261.622 489.799 261.467 489.647 261.343C489.496 261.218 489.321 261.127 489.132 261.074C488.943 261.022 488.746 261.009 488.552 261.037C488.358 261.065 488.172 261.133 488.006 261.237L477.591 267.82C477.275 268.017 476.895 268.082 476.532 268.002L469.399 266.399C469.136 266.337 468.859 266.354 468.605 266.449L466.003 267.411C465.935 267.433 465.869 267.462 465.808 267.499L460.055 270.681C459.833 270.802 459.583 270.862 459.331 270.857L455.071 270.719C454.998 270.712 454.924 270.712 454.851 270.719L450.755 271.24C450.398 271.284 450.039 271.192 449.747 270.983L448.915 270.354C448.669 270.173 448.37 270.078 448.065 270.084L443.572 270.146C443.392 270.147 443.214 270.183 443.049 270.253L441.033 271.102C440.786 271.204 440.515 271.234 440.252 271.188C439.989 271.143 439.744 271.023 439.546 270.844L437.895 269.386C437.727 269.234 437.524 269.126 437.304 269.07C437.085 269.014 436.855 269.013 436.635 269.065L429.741 270.725L422.653 272.554C422.462 272.595 422.264 272.595 422.073 272.554L416.087 271.561C415.991 271.555 415.894 271.555 415.798 271.561L404.727 272.058C404.515 272.067 404.307 272.125 404.12 272.226C403.934 272.327 403.773 272.47 403.649 272.642L401.98 274.937C401.813 275.171 401.578 275.347 401.308 275.442C401.037 275.538 400.744 275.548 400.467 275.472L398.684 274.981C398.494 274.932 398.296 274.921 398.102 274.952C397.908 274.982 397.722 275.052 397.556 275.157L395.773 276.295C395.568 276.422 395.334 276.496 395.093 276.509L391.312 276.717C391.241 276.711 391.169 276.711 391.098 276.717L385.641 277.88C385.544 277.9 385.445 277.91 385.345 277.911H382.144C381.847 277.911 381.558 277.817 381.319 277.641L380.487 277.012C380.341 276.903 380.174 276.824 379.996 276.78C379.819 276.736 379.635 276.727 379.454 276.754L372.643 277.773C372.486 277.798 372.327 277.798 372.17 277.773L368.969 277.144C368.881 277.135 368.792 277.135 368.704 277.144H362.561C362.465 277.135 362.368 277.135 362.271 277.144L356.04 278.465C355.873 278.496 355.702 278.496 355.536 278.465L351.824 277.905C351.591 277.873 351.353 277.899 351.131 277.981L348.75 278.848C348.558 278.92 348.353 278.948 348.149 278.93C347.945 278.913 347.748 278.85 347.571 278.748L346.443 278.119C346.157 277.95 345.818 277.892 345.492 277.955L339.821 279.031C339.652 279.062 339.479 279.062 339.311 279.031L336.582 278.546C336.434 278.524 336.283 278.524 336.135 278.546L333.123 278.98C332.908 279.013 332.688 278.995 332.481 278.927C332.274 278.86 332.086 278.744 331.932 278.59L330.937 277.641C330.671 277.381 330.314 277.235 329.941 277.232H327.553C327.474 277.239 327.393 277.239 327.314 277.232L320.345 276.013C320.156 275.972 319.961 275.972 319.772 276.013L314.504 277.27C314.397 277.295 314.287 277.308 314.176 277.308H307.831C307.735 277.298 307.638 277.298 307.542 277.308L305.393 277.767C305.031 277.867 304.644 277.822 304.315 277.641L303.723 277.257C303.497 277.114 303.235 277.038 302.967 277.037H299.13C298.948 277.038 298.768 277.075 298.601 277.144L295.916 278.238C295.731 278.315 295.532 278.351 295.332 278.344C295.132 278.336 294.935 278.285 294.757 278.194L293.333 277.478C293.056 277.339 292.742 277.295 292.438 277.352L289.628 277.893C289.437 277.933 289.239 277.933 289.048 277.893L282.533 276.384H282.388L276.85 275.698C276.481 275.656 276.11 275.76 275.816 275.987L272.666 278.427C272.49 278.563 272.349 278.74 272.256 278.943L271.551 280.508C271.471 280.68 271.357 280.835 271.217 280.962C271.076 281.09 270.911 281.187 270.732 281.25L268.312 282.074C268.088 282.155 267.847 282.175 267.613 282.13L262.232 281.175C262.017 281.138 261.797 281.151 261.588 281.213C261.379 281.275 261.187 281.385 261.028 281.533L258.892 283.526C258.752 283.657 258.64 283.816 258.565 283.993C258.489 284.169 258.45 284.359 258.451 284.551C258.451 284.888 258.329 285.215 258.106 285.469C257.884 285.723 257.576 285.889 257.241 285.934L253.202 286.494C253.052 286.519 252.899 286.519 252.749 286.494L249.094 285.802C248.985 285.789 248.875 285.789 248.767 285.802L242.661 286.079C242.404 286.089 242.15 286.03 241.924 285.909L240.853 285.324C240.688 285.23 240.506 285.173 240.317 285.154L237.11 284.834C236.897 284.812 236.682 284.838 236.48 284.909L232.699 286.249C232.559 286.298 232.413 286.326 232.264 286.33L226.89 286.475C226.816 286.469 226.743 286.469 226.669 286.475L217.564 288.154C217.367 288.194 217.163 288.194 216.966 288.154L213.866 287.361C213.75 287.334 213.632 287.319 213.513 287.317H203.74C203.561 287.319 203.383 287.285 203.217 287.217L200.155 285.997C199.835 285.875 199.48 285.875 199.159 285.997L196.311 287.009C196.039 287.105 195.802 287.282 195.635 287.518C195.468 287.753 195.378 288.035 195.379 288.323V288.952C195.378 289.136 195.414 289.318 195.484 289.488C195.554 289.658 195.656 289.813 195.786 289.943C195.916 290.073 196.071 290.177 196.241 290.247C196.411 290.318 196.593 290.354 196.778 290.354H520.645C520.829 290.354 521.011 290.318 521.182 290.247C521.352 290.177 521.506 290.073 521.636 289.943C521.766 289.813 521.869 289.658 521.939 289.488C522.009 289.318 522.044 289.136 522.044 288.952L521.962 262.375C521.97 262.15 521.925 261.926 521.828 261.722C521.732 261.518 521.587 261.34 521.407 261.204C521.227 261.068 521.017 260.977 520.794 260.939C520.572 260.901 520.343 260.917 520.128 260.986Z" fill="#2F80ED"/>
<path d="M277.827 251.397C280.263 251.397 282.237 249.427 282.237 246.996C282.237 244.565 280.263 242.595 277.827 242.595C275.391 242.595 273.416 244.565 273.416 246.996C273.416 249.427 275.391 251.397 277.827 251.397Z" fill="#2F80ED"/>
<path d="M489.537 223.732C491.973 223.732 493.947 221.762 493.947 219.331C493.947 216.9 491.973 214.93 489.537 214.93C487.101 214.93 485.126 216.9 485.126 219.331C485.126 221.762 487.101 223.732 489.537 223.732Z" fill="#2F80ED"/>
<path d="M379.901 253.283C382.337 253.283 384.312 251.313 384.312 248.882C384.312 246.451 382.337 244.481 379.901 244.481C377.465 244.481 375.49 246.451 375.49 248.882C375.49 251.313 377.465 253.283 379.901 253.283Z" fill="#2F80ED"/>
<path d="M437.24 237.565C439.676 237.565 441.65 235.594 441.65 233.163C441.65 230.733 439.676 228.762 437.24 228.762C434.804 228.762 432.829 230.733 432.829 233.163C432.829 235.594 434.804 237.565 437.24 237.565Z" fill="#2F80ED"/>
<path d="M522.604 219.432C522.603 219.099 522.511 218.773 522.34 218.488C522.168 218.204 521.922 217.971 521.628 217.814C521.334 217.657 521.003 217.583 520.67 217.599C520.337 217.615 520.015 217.72 519.737 217.904L514.86 221.148C514.689 221.263 514.538 221.406 514.413 221.569L511.382 225.562C511.198 225.799 510.961 225.988 510.689 226.115C510.417 226.242 510.119 226.302 509.82 226.291L508.83 226.241C508.491 226.224 508.162 226.114 507.881 225.924C507.6 225.733 507.377 225.468 507.236 225.16L506.606 223.82C506.465 223.506 506.239 223.237 505.952 223.045C505.666 222.853 505.331 222.745 504.986 222.734C504.641 222.723 504.299 222.809 504.001 222.982C503.703 223.155 503.459 223.409 503.298 223.713L502.038 226.122C501.881 226.417 501.646 226.664 501.358 226.836C501.07 227.007 500.741 227.097 500.406 227.096H494.156C493.743 227.098 493.343 226.961 493.018 226.708C492.694 226.455 492.464 226.1 492.366 225.7L490.866 219.708C490.783 219.374 490.608 219.07 490.36 218.831C490.112 218.592 489.802 218.426 489.465 218.353C489.128 218.281 488.777 218.304 488.452 218.42C488.128 218.536 487.842 218.741 487.628 219.01L478.618 230.378C478.363 230.701 478.008 230.93 477.608 231.027C477.208 231.124 476.787 231.083 476.412 230.913L470.622 228.303C470.318 228.162 469.982 228.105 469.649 228.139C469.316 228.174 468.999 228.298 468.731 228.498L466.658 230.026C466.559 230.1 466.468 230.184 466.387 230.278L460.918 236.32C460.734 236.53 460.505 236.696 460.247 236.805C459.99 236.914 459.711 236.963 459.431 236.949L455.859 236.722C455.664 236.711 455.469 236.727 455.279 236.772L452.059 237.596C451.692 237.692 451.304 237.672 450.949 237.539C450.594 237.406 450.288 237.167 450.074 236.854L449.709 236.314C449.534 236.06 449.298 235.854 449.023 235.714C448.748 235.575 448.442 235.506 448.134 235.515L444.542 235.622C444.128 235.629 443.729 235.78 443.414 236.049L442.532 236.785C442.323 236.96 442.078 237.087 441.814 237.156C441.551 237.225 441.275 237.235 441.007 237.185C440.739 237.135 440.485 237.027 440.264 236.867C440.043 236.708 439.86 236.502 439.728 236.263L438.796 234.578C438.568 234.166 438.192 233.857 437.743 233.713C437.294 233.569 436.808 233.602 436.382 233.805L430.34 236.703L423.655 240.149C423.437 240.261 423.198 240.328 422.953 240.346C422.709 240.365 422.463 240.334 422.231 240.256L416.906 238.495C416.667 238.417 416.414 238.387 416.163 238.407L405.855 239.287C405.505 239.324 405.172 239.456 404.894 239.671C404.616 239.885 404.403 240.173 404.279 240.501L402.786 244.663C402.696 244.913 402.552 245.141 402.366 245.331C402.179 245.52 401.953 245.667 401.704 245.762C401.455 245.856 401.189 245.895 400.923 245.877C400.657 245.859 400.399 245.784 400.165 245.657L400.102 245.625C399.719 245.413 399.273 245.345 398.844 245.433C398.416 245.52 398.033 245.758 397.764 246.103L396.592 247.599C396.281 247.989 395.828 248.24 395.332 248.297L392.106 248.643C391.924 248.661 391.746 248.706 391.577 248.775L386.467 250.957C386.237 251.051 385.991 251.1 385.742 251.102H383.285C382.984 251.101 382.688 251.028 382.422 250.888C382.157 250.748 381.929 250.545 381.76 250.297L381.407 249.781C381.186 249.459 380.867 249.215 380.498 249.085C380.129 248.955 379.728 248.946 379.353 249.058L373.625 250.787C373.232 250.905 372.811 250.89 372.428 250.743L369.769 249.725C369.568 249.646 369.355 249.603 369.139 249.599H363.43C363.183 249.599 362.938 249.65 362.712 249.75L357.041 252.152C356.643 252.323 356.196 252.348 355.781 252.221L352.977 251.385C352.704 251.303 352.416 251.286 352.135 251.334C351.854 251.382 351.588 251.494 351.358 251.661L350.129 252.56C349.757 252.832 349.297 252.955 348.839 252.905C348.38 252.855 347.957 252.635 347.653 252.29L347.47 252.082C347.222 251.8 346.894 251.6 346.529 251.509C346.165 251.418 345.781 251.44 345.429 251.573L340.861 253.315C340.454 253.463 340.007 253.463 339.6 253.315L337.597 252.598C337.231 252.472 336.835 252.461 336.463 252.567L334.572 253.114C334.158 253.233 333.716 253.204 333.321 253.031C332.926 252.859 332.604 252.555 332.411 252.17L331.705 250.756C331.552 250.45 331.316 250.193 331.024 250.013C330.733 249.834 330.397 249.738 330.055 249.737H328.416C328.202 249.741 327.989 249.707 327.786 249.637L321.429 247.411C321.2 247.329 320.958 247.294 320.715 247.307C320.473 247.32 320.236 247.381 320.017 247.486L315.373 249.712C315.123 249.831 314.85 249.893 314.573 249.894H308.707C308.458 249.896 308.212 249.945 307.982 250.039L306.785 250.555C306.411 250.713 305.994 250.744 305.6 250.643C305.206 250.542 304.857 250.314 304.605 249.995C304.433 249.774 304.212 249.594 303.96 249.471C303.708 249.348 303.431 249.284 303.15 249.285H300.188C299.761 249.284 299.347 249.431 299.016 249.699L297.296 251.108C296.942 251.4 296.492 251.549 296.033 251.526C295.575 251.503 295.142 251.309 294.82 250.982L294.429 250.592C294.177 250.339 293.856 250.164 293.506 250.089C293.156 250.014 292.791 250.043 292.457 250.171L290.743 250.831C290.274 251.006 289.756 250.988 289.3 250.781L283.27 247.989C283.164 247.939 283.052 247.901 282.936 247.876L278.204 246.713C277.831 246.62 277.438 246.646 277.081 246.788C276.723 246.931 276.42 247.181 276.213 247.505L273.239 252.133C273.125 252.31 273.042 252.506 272.993 252.711L272.092 256.641C271.985 257.09 271.716 257.483 271.336 257.747L269.37 259.093C269.131 259.257 268.856 259.363 268.568 259.4C268.28 259.437 267.987 259.405 267.713 259.307L263.668 257.873C263.245 257.724 262.782 257.734 262.366 257.9C261.95 258.067 261.609 258.379 261.406 258.779L259.276 262.752C259.136 263.02 259.063 263.318 259.062 263.62V265.412C259.061 265.814 258.927 266.205 258.683 266.525C258.438 266.845 258.096 267.077 257.707 267.185L254.166 268.166C253.791 268.272 253.391 268.254 253.026 268.115L249.938 266.952C249.678 266.852 249.397 266.813 249.119 266.839L243.795 267.323C243.511 267.351 243.225 267.312 242.959 267.209C242.693 267.106 242.455 266.943 242.264 266.732L241.634 266.034C241.371 265.741 241.019 265.542 240.632 265.468L238.206 264.978C237.958 264.931 237.703 264.934 237.457 264.987C237.21 265.04 236.976 265.142 236.769 265.286L233.575 267.556C233.289 267.756 232.953 267.874 232.605 267.895L227.709 268.153C227.524 268.165 227.341 268.203 227.167 268.266L218.667 271.41C218.429 271.5 218.174 271.539 217.92 271.524C217.666 271.508 217.418 271.44 217.193 271.322L214.735 270.065C214.476 269.932 214.189 269.863 213.897 269.863H204.761C204.339 269.863 203.93 269.719 203.601 269.455L201.39 267.688C201.076 267.437 200.69 267.296 200.288 267.284C199.887 267.273 199.493 267.393 199.166 267.625L196.796 269.31C196.557 269.481 196.362 269.706 196.227 269.968C196.092 270.229 196.022 270.519 196.021 270.813" stroke="#2F80ED" stroke-miterlimit="10"/>
<path opacity="0.2" d="M545.615 316.126H177.012V316.189H545.615V316.126Z" fill="#F2F2F2"/>
<path opacity="0.3" d="M233.72 319.302C235.46 319.302 236.87 317.894 236.87 316.158C236.87 314.422 235.46 313.014 233.72 313.014C231.98 313.014 230.569 314.422 230.569 316.158C230.569 317.894 231.98 319.302 233.72 319.302Z" fill="#2F80ED"/>
<path opacity="0.3" d="M279.717 319.302C281.457 319.302 282.867 317.894 282.867 316.158C282.867 314.422 281.457 313.014 279.717 313.014C277.977 313.014 276.566 314.422 276.566 316.158C276.566 317.894 277.977 319.302 279.717 319.302Z" fill="#2F80ED"/>
<path opacity="0.3" d="M325.713 319.302C327.453 319.302 328.863 317.894 328.863 316.158C328.863 314.422 327.453 313.014 325.713 313.014C323.973 313.014 322.562 314.422 322.562 316.158C322.562 317.894 323.973 319.302 325.713 319.302Z" fill="#2F80ED"/>
<path opacity="0.3" d="M371.71 319.302C373.45 319.302 374.86 317.894 374.86 316.158C374.86 314.422 373.45 313.014 371.71 313.014C369.97 313.014 368.56 314.422 368.56 316.158C368.56 317.894 369.97 319.302 371.71 319.302Z" fill="#2F80ED"/>
<path opacity="0.3" d="M417.707 319.302C419.447 319.302 420.858 317.894 420.858 316.158C420.858 314.422 419.447 313.014 417.707 313.014C415.967 313.014 414.557 314.422 414.557 316.158C414.557 317.894 415.967 319.302 417.707 319.302Z" fill="#2F80ED"/>
<path opacity="0.3" d="M463.703 319.302C465.443 319.302 466.854 317.894 466.854 316.158C466.854 314.422 465.443 313.014 463.703 313.014C461.963 313.014 460.553 314.422 460.553 316.158C460.553 317.894 461.963 319.302 463.703 319.302Z" fill="#2F80ED"/>
<path opacity="0.3" d="M509.7 319.302C511.44 319.302 512.851 317.894 512.851 316.158C512.851 314.422 511.44 313.014 509.7 313.014C507.96 313.014 506.55 314.422 506.55 316.158C506.55 317.894 507.96 319.302 509.7 319.302Z" fill="#2F80ED"/>
<path d="M151.033 437.392C149.143 433.928 151.285 429.684 153.736 426.597C156.187 423.51 159.161 420.309 159.098 416.355C159.004 410.696 152.986 407.351 148.179 404.352C144.608 402.124 141.317 399.48 138.374 396.474C137.143 395.318 136.124 393.956 135.363 392.45C134.367 390.237 134.392 387.722 134.455 385.301C134.67 377.219 135.071 369.153 135.659 361.101" stroke="#3F3D56" stroke-width="4" stroke-miterlimit="10"/>
<path d="M126.516 360.673C126.583 359.195 127.022 357.758 127.793 356.494C128.564 355.23 129.641 354.181 130.926 353.442L132.905 357.347L132.842 352.619C133.788 352.342 134.774 352.223 135.759 352.267C137.5 352.353 139.175 352.951 140.575 353.987C141.975 355.022 143.036 356.448 143.625 358.085C144.214 359.721 144.303 361.495 143.883 363.183C143.462 364.87 142.55 366.395 141.262 367.566C139.974 368.737 138.367 369.501 136.644 369.761C134.921 370.022 133.16 369.767 131.581 369.03C130.003 368.293 128.68 367.105 127.777 365.618C126.874 364.131 126.433 362.41 126.509 360.673H126.516Z" fill="#57B894"/>
<path d="M142.288 420.397C143.215 422.191 144.733 423.612 146.585 424.423C148.438 425.233 150.514 425.384 152.465 424.849C154.415 424.314 156.123 423.126 157.3 421.484C158.478 419.843 159.054 417.847 158.932 415.832C158.811 413.817 157.999 411.905 156.633 410.416C155.266 408.927 153.429 407.953 151.428 407.655C149.427 407.357 147.384 407.755 145.642 408.781C143.9 409.807 142.564 411.4 141.859 413.292L147.385 417.775L141.305 416.373C141.307 417.773 141.644 419.153 142.288 420.397Z" fill="#57B894"/>
<path d="M146.654 403.264C148.851 403.419 151.027 402.748 152.754 401.383C154.48 400.018 155.632 398.058 155.984 395.888C156.335 393.718 155.861 391.496 154.653 389.658C153.445 387.819 151.592 386.498 149.458 385.955L149.508 389.589L147.505 385.634C146.344 385.577 145.184 385.75 144.091 386.142C142.998 386.534 141.993 387.137 141.134 387.918C140.275 388.698 139.579 389.64 139.086 390.69C138.593 391.74 138.313 392.876 138.261 394.034C138.209 395.052 138.337 396.072 138.639 397.046C139.171 398.78 140.226 400.308 141.66 401.421C143.095 402.534 144.839 403.177 146.654 403.264Z" fill="#57B894"/>
<path d="M125.186 389.01C126.544 389.06 127.894 388.796 129.133 388.24C130.371 387.683 131.464 386.848 132.326 385.801C133.189 384.754 133.797 383.522 134.104 382.201C134.41 380.881 134.407 379.508 134.095 378.189C133.782 376.869 133.169 375.64 132.302 374.597C131.435 373.553 130.339 372.723 129.098 372.172C127.857 371.621 126.505 371.363 125.148 371.419C123.791 371.474 122.465 371.842 121.273 372.493L122.836 376.768L119.623 373.688C117.9 375.261 116.874 377.452 116.768 379.78C116.726 380.597 116.8 381.417 116.989 382.213C117.43 384.081 118.469 385.754 119.948 386.981C121.427 388.207 123.265 388.919 125.186 389.01Z" fill="#57B894"/>
<path opacity="0.1" d="M127.707 363.024C129.748 363.244 131.733 363.879 133.781 364.005C135.829 364.131 138.078 363.64 139.376 362.056C140.069 361.201 140.422 360.113 141.008 359.183C141.568 358.312 142.334 357.593 143.239 357.089C143.772 358.202 144.065 359.414 144.099 360.647C144.133 361.881 143.906 363.107 143.434 364.248C142.963 365.388 142.256 366.416 141.36 367.267C140.464 368.117 139.399 368.769 138.234 369.182C137.069 369.595 135.829 369.759 134.597 369.663C133.364 369.568 132.166 369.215 131.078 368.627C129.991 368.039 129.04 367.23 128.287 366.252C127.534 365.273 126.995 364.148 126.705 362.949C127.041 362.961 127.375 362.986 127.707 363.024Z" fill="black"/>
<path opacity="0.1" d="M125.186 389.01C126.712 389.088 128.231 388.768 129.595 388.084C130.959 387.4 132.123 386.374 132.97 385.106C133.818 383.839 134.322 382.374 134.432 380.854C134.542 379.334 134.255 377.811 133.598 376.436C132.896 376.906 132.293 377.508 131.821 378.209C131.191 379.158 130.807 380.252 130.07 381.126C128.69 382.742 126.339 383.27 124.203 383.176C122.067 383.081 120.007 382.471 117.903 382.277C117.606 382.277 117.31 382.233 117.008 382.226C117.451 384.089 118.487 385.757 119.962 386.98C121.437 388.204 123.271 388.916 125.186 389.01Z" fill="black"/>
<path opacity="0.1" d="M146.654 403.264C148.168 403.343 149.677 403.03 151.035 402.357C152.393 401.684 153.554 400.673 154.407 399.422C155.259 398.171 155.774 396.721 155.902 395.214C156.029 393.706 155.765 392.191 155.135 390.815C154.401 391.293 153.761 391.9 153.245 392.607C152.558 393.575 152.129 394.688 151.354 395.581C149.861 397.241 147.353 397.825 145.097 397.769C142.842 397.712 140.794 397.19 138.62 397.021C139.148 398.762 140.204 400.298 141.643 401.416C143.082 402.534 144.832 403.18 146.654 403.264Z" fill="black"/>
<path opacity="0.1" d="M142.287 420.397C143.244 422.531 145.011 424.198 147.199 425.032C149.388 425.865 151.818 425.797 153.956 424.843C156.095 423.888 157.765 422.125 158.601 419.941C159.436 417.757 159.368 415.332 158.411 413.198C157.681 413.672 157.027 414.253 156.47 414.921C155.626 415.946 155.072 417.109 154.101 418.065C152.293 419.838 149.376 420.58 146.773 420.636C145.275 420.642 143.777 420.563 142.287 420.397Z" fill="black"/>
<path d="M164.372 433.406C164.372 433.406 157.391 433.192 155.286 431.696C153.182 430.199 144.575 428.42 144.033 430.815C143.491 433.211 133.542 442.761 141.418 442.799C149.294 442.837 159.728 441.573 161.833 440.284C163.937 438.995 164.372 433.406 164.372 433.406Z" fill="#656380"/>
<path opacity="0.2" d="M141.279 441.963C149.161 442.026 159.589 440.743 161.688 439.448C163.288 438.474 163.924 434.984 164.139 433.381H164.372C164.372 433.381 163.931 438.996 161.851 440.297C159.772 441.599 149.319 442.862 141.436 442.812C139.162 442.812 138.381 441.988 138.425 440.794C138.721 441.498 139.584 441.951 141.279 441.963Z" fill="black"/>
<path d="M604.239 356.014C603.78 357.327 603.606 358.722 603.728 360.107C604.035 361.49 604.685 362.775 605.619 363.842C606.087 364.585 606.814 365.13 607.66 365.37C608.099 365.41 608.54 365.331 608.937 365.139C609.334 364.947 609.67 364.651 609.91 364.282C610.383 363.538 610.664 362.689 610.729 361.811C610.906 359.471 610.79 357.118 610.382 354.807C610.118 352.864 610.048 350.726 609.532 348.846C608.196 348.846 606.652 348.601 605.909 349.871C604.957 351.525 604.73 354.165 604.239 356.014Z" fill="#FFC0C6"/>
<path d="M611.547 321.401C611.22 322.326 610.76 323.206 610.457 324.143C610.168 325.118 609.958 326.114 609.827 327.123C608.892 333.044 607.63 338.908 606.047 344.69C605.483 346.389 605.165 348.158 605.102 349.946L608.706 349.821C609.045 349.767 609.391 349.843 609.676 350.034C609.985 350.311 610.193 350.921 610.583 350.764C611.259 347.309 611.733 343.818 612.001 340.308C612.146 337.793 612.077 335.328 612.24 332.844C612.556 327.896 614.03 322.256 612.102 317.472C612.174 318.805 611.986 320.14 611.547 321.401Z" fill="#3F3D56"/>
<path opacity="0.1" d="M611.547 321.401C611.22 322.326 610.76 323.206 610.457 324.143C610.168 325.118 609.958 326.114 609.827 327.123C608.892 333.044 607.63 338.908 606.047 344.69C605.483 346.389 605.165 348.158 605.102 349.946L608.706 349.821C609.045 349.767 609.391 349.843 609.676 350.034C609.985 350.311 610.193 350.921 610.583 350.764C611.259 347.309 611.733 343.818 612.001 340.308C612.146 337.793 612.077 335.328 612.24 332.844C612.556 327.896 614.03 322.256 612.102 317.472C612.174 318.805 611.986 320.14 611.547 321.401Z" fill="black"/>
<path d="M616.027 291.762C615.145 292.517 614.843 293.724 614.585 294.856L612.493 304.048C612.014 306.148 611.535 308.248 611.232 310.379C609.909 319.282 611.44 328.437 609.972 337.315C609.547 339.294 609.265 341.3 609.128 343.319C609.065 347.016 610.495 350.695 609.903 354.341C609.704 354.989 609.704 355.681 609.903 356.328C610.205 356.957 611.226 357.158 611.51 356.548C611.56 356.437 611.592 356.318 611.604 356.196L613.784 342.471C614.307 339.207 614.824 335.894 614.465 332.606C614.219 330.367 613.564 328.129 613.923 325.903C614.16 324.8 614.482 323.718 614.887 322.665C616.992 316.378 616.702 309.543 615.517 303.042C615.278 302.098 615.209 301.118 615.315 300.15C615.605 298.559 616.84 297.339 617.672 295.956C618.302 294.912 619.386 292.617 618.932 291.36C618.466 289.889 616.916 291.002 616.027 291.762Z" fill="#3F3D56"/>
<path d="M619.518 424.666C619.228 424.636 618.935 424.688 618.674 424.817C618.453 424.977 618.281 425.195 618.176 425.446C617.477 426.886 616.985 428.552 615.656 429.483C614.987 429.9 614.252 430.202 613.482 430.375L607.559 432.06C606.797 432.274 605.927 432.589 605.669 433.318C605.411 434.047 605.965 434.94 606.677 435.368C607.737 435.871 608.91 436.088 610.08 435.996L618.655 436.122C619.47 436.18 620.288 436.097 621.075 435.877C622.077 435.525 622.921 434.726 623.973 434.619C624.83 434.525 625.655 434.896 626.493 435.085C628.239 435.468 630.047 435.085 631.78 434.645C632.095 434.601 632.388 434.46 632.618 434.242C632.806 433.97 632.897 433.642 632.876 433.312C632.946 431.847 632.971 430.388 632.964 428.91C632.964 427.584 632.807 426.043 631.704 425.314C631.197 425.024 630.63 424.85 630.047 424.805C626.531 424.358 623.059 424.691 619.518 424.666Z" fill="#575A88"/>
<path d="M642.208 443.283C641.966 443.855 641.659 444.397 641.294 444.899L637.684 450.357C636.21 452.576 634.685 454.953 634.584 457.612C636.99 458.537 639.575 458.909 642.145 458.7C643.432 458.667 644.684 458.278 645.762 457.575C647.312 456.437 647.923 454.431 648.427 452.595C648.463 452.351 648.586 452.127 648.774 451.966C649.095 451.746 649.53 451.966 649.92 451.885C650.721 451.784 650.998 450.778 651.055 449.998C651.214 447.512 651.002 445.016 650.424 442.592C650.381 442.289 650.247 442.007 650.04 441.781C649.8 441.601 649.514 441.494 649.215 441.473C647.413 441.164 645.611 440.806 643.802 440.542C641.414 440.159 642.882 441.567 642.208 443.283Z" fill="#575A88"/>
<path d="M612.393 346.036C610.647 348.249 610.086 351.204 610.219 354.014C610.351 356.825 611.126 359.566 611.775 362.308C612.84 366.769 613.61 371.295 614.081 375.857C614.156 377.133 614.367 378.398 614.711 379.63C615.02 380.585 615.499 381.478 615.776 382.44C616.116 383.609 616.148 384.854 616.463 386.03C616.889 387.3 617.433 388.527 618.089 389.696C620.968 395.568 621.586 402.271 621.636 408.81C621.636 410.576 621.636 412.337 621.8 414.091C622.165 417.65 623.268 421.636 621.132 424.503C621.674 426.452 624.282 426.823 626.274 426.565C628.613 426.275 630.902 425.661 633.072 424.742C632.442 423.409 631.522 421.856 631.566 420.341C631.699 419.156 632.001 417.996 632.461 416.895C633.602 413.437 633.721 409.74 633.784 406.1C633.831 404.976 633.814 403.851 633.734 402.73C633.623 401.694 633.454 400.666 633.23 399.649L630.791 387.457C630.363 385.316 630.306 383.117 630.621 380.956C631.08 378.394 631.95 375.923 633.198 373.638C636.116 367.759 637.124 361.132 637.697 354.593C638.006 351.022 638.081 347.048 635.807 344.275C634.4 342.674 632.497 341.59 630.401 341.194C628.323 340.816 626.201 340.733 624.1 340.949C619.884 341.301 615.007 342.729 612.393 346.036Z" fill="#3F3D56"/>
<path d="M612.903 347.601C612.096 350.305 614.1 352.939 615.133 355.567C615.725 357.083 616.022 358.711 616.929 360.088C618.05 361.767 619.979 362.76 621.195 364.376C622.411 365.992 622.764 367.885 623.715 369.563C624.666 371.242 626.235 372.638 627.118 374.386C628.453 376.995 628.258 380.126 629.197 382.905C629.865 384.898 631.119 386.678 631.604 388.734C631.818 389.658 631.875 390.62 632.114 391.525C632.675 393.688 634.212 395.574 634.37 397.813C634.471 399.278 633.979 400.887 634.754 402.132C635.221 402.893 636.065 403.339 636.645 404.018C637.068 404.636 637.374 405.327 637.545 406.056L638.806 410.174C640.022 414.173 640.16 418.304 641.326 422.321C642.492 426.339 643.317 430.684 641.956 434.645C641.408 436.286 640.494 437.971 640.954 439.637C641.15 440.226 641.473 440.765 641.9 441.217C642.326 441.669 642.847 442.022 643.424 442.252C644.587 442.698 645.821 442.93 647.066 442.938C648.736 443.026 650.532 442.938 651.912 442.014C651.234 436.963 650.964 431.866 651.105 426.773C651.263 423.453 651.735 420.146 651.735 416.82C651.665 414.714 651.465 412.614 651.137 410.532C650.76 407.417 650.093 404.344 649.146 401.353C648.618 400.016 648.176 398.646 647.822 397.253C647.621 396.304 647.558 395.329 647.419 394.367C647.28 393.405 647.073 392.481 646.865 391.494L646.02 387.608C645.831 386.753 645.315 386.005 645.277 385.131L645.018 379.472C644.603 370.205 644.199 360.786 646.436 351.808C645.132 347.947 642.933 343.879 639.184 342.263C637.641 341.648 635.994 341.334 634.332 341.339C626.676 341.1 619.821 344.376 612.903 347.601Z" fill="#3F3D56"/>
<path d="M618.623 284.224C618.983 284.458 619.313 284.735 619.606 285.048C619.956 285.475 620.233 285.957 620.425 286.475C621.139 288.197 621.564 290.023 621.686 291.882C625.774 289.018 629.535 285.714 632.901 282.03C631.395 282.143 630.009 281.068 629.291 279.747C628.658 278.379 628.295 276.902 628.22 275.396C628.182 275.113 624.294 276.761 623.979 276.931C622.593 277.685 621.295 278.584 619.94 279.389C619.29 279.786 618.619 280.149 617.93 280.477C617.3 280.766 616.305 280.898 615.782 281.313C614.389 282.432 617.767 283.627 618.623 284.224Z" fill="#FFC0C6"/>
<path d="M617.994 288.481C617.836 289.694 618.044 290.933 617.861 292.14C617.603 293.881 616.601 295.397 615.845 296.994C613.778 301.477 613.955 306.613 613.86 311.543C613.766 316.937 613.318 322.313 612.865 327.689L612.039 337.529C611.894 339.226 611.75 340.937 611.409 342.615C611.23 343.322 611.143 344.049 611.151 344.778C611.258 345.655 611.518 346.506 611.92 347.293C612.295 348.341 612.895 349.293 613.678 350.085C614.076 350.473 614.588 350.725 615.139 350.805C615.69 350.885 616.253 350.789 616.746 350.531L617.49 348.299C617.517 349.192 617.879 350.042 618.504 350.682C619.13 351.321 619.973 351.703 620.867 351.751C621.509 351.729 622.145 351.618 622.757 351.424L628.586 349.846C629.846 349.562 631.072 349.14 632.24 348.588C634.76 347.249 636.449 344.734 637.357 342.043C638.264 339.352 638.447 336.491 638.554 333.662C638.787 327.129 638.61 320.534 637.224 314.171C636.644 311.499 635.851 308.871 635.372 306.18C634.815 302.549 634.541 298.881 634.553 295.208L634.351 286.116C634.405 284.989 634.214 283.862 633.79 282.816C633.567 282.299 633.186 281.866 632.702 281.578C632.218 281.29 631.655 281.162 631.093 281.212C629.348 281.539 628.938 283.784 627.993 285.286C627.187 286.575 625.832 287.405 624.528 288.191C623.671 288.707 622.6 289.235 621.718 288.757C620.835 288.279 620.842 286.739 619.934 286.343C618.731 285.695 618.101 287.55 617.994 288.481Z" fill="#F2F2F2"/>
<path d="M626.342 291.033C624.692 295.246 623.822 299.716 622.99 304.167C622.114 308.965 621.327 313.888 622.127 318.698C623.639 327.796 630.558 335.146 632.914 344.061C633.324 345.608 633.595 347.205 634.174 348.701C635.075 351.216 636.695 353.354 638.289 355.473C639.146 356.611 640.412 357.887 641.761 357.428C642.763 357.083 643.204 355.944 643.966 355.203C645.031 354.165 646.663 353.983 648.15 354.052C649.637 354.121 651.162 354.392 652.605 354.052C654.048 353.712 655.421 352.424 655.276 350.908C655.182 349.959 654.514 349.186 654.016 348.393C652.567 346.23 652.012 343.602 651.59 341.031C649.164 326.199 650.248 310.952 647.671 296.145C647.35 294.258 646.946 292.372 645.882 290.825C645.358 290.168 644.872 289.482 644.426 288.769C644.023 287.996 643.846 287.097 643.317 286.399C642.561 285.406 641.263 285.035 640.072 284.651C638.452 284.129 636.878 283.475 635.365 282.696C634.219 282.105 632.593 280.47 631.434 281.25C630.274 282.029 629.398 284.752 628.775 285.934C627.868 287.586 627.056 289.289 626.342 291.033Z" fill="#3F3D56"/>
<path d="M631.332 352.329C630.438 352.537 629.486 352.254 628.585 352.455C627.104 352.795 626.254 354.297 625.586 355.655C625.34 356.075 625.187 356.542 625.139 357.026C625.122 357.267 625.182 357.508 625.311 357.712C625.44 357.917 625.632 358.075 625.857 358.164C626.107 358.201 626.362 358.168 626.594 358.069C626.826 357.97 627.027 357.81 627.174 357.604C627.462 357.193 627.801 356.82 628.182 356.492C629.228 355.794 630.652 356.536 631.465 357.491C632.277 358.447 632.889 359.648 633.985 360.22C634.62 360.503 635.301 360.669 635.995 360.71C636.723 360.83 637.466 360.83 638.194 360.71C638.56 360.652 638.907 360.508 639.206 360.289C639.505 360.07 639.748 359.784 639.914 359.453C640.075 359.019 640.146 358.557 640.122 358.095L640.229 351.808C640.273 351.44 640.198 351.067 640.015 350.745C639.795 350.489 639.503 350.306 639.177 350.217C638.005 349.77 635.466 348.255 634.287 349.016C632.971 349.946 633.223 351.896 631.332 352.329Z" fill="#FFC0C6"/>
<path d="M619.229 284.123C625.395 284.123 630.394 279.135 630.394 272.982C630.394 266.828 625.395 261.84 619.229 261.84C613.062 261.84 608.063 266.828 608.063 272.982C608.063 279.135 613.062 284.123 619.229 284.123Z" fill="#FFC0C6"/>
<path d="M618.133 271.768C618.048 271.366 617.854 270.996 617.572 270.697C617.289 270.399 616.929 270.184 616.532 270.077C616.223 270.053 615.916 270.009 615.612 269.945C614.56 269.586 614.585 267.983 613.684 267.342C612.997 266.858 612.052 267.109 611.303 267.474C610.553 267.839 609.797 268.329 608.965 268.285C608.445 268.218 607.96 267.986 607.581 267.624C607.203 267.262 606.95 266.789 606.86 266.273C606.704 265.234 606.904 264.173 607.427 263.261C609.103 259.979 612.613 258.099 616.009 256.666C617.481 255.983 619.042 255.511 620.647 255.264C622.263 255.021 623.914 255.371 625.291 256.251C625.725 256.553 626.103 256.917 626.551 257.2C626.991 257.459 627.445 257.692 627.912 257.898C632.398 260.143 634.736 265.776 633.507 270.636C633.079 272.328 632.247 273.919 631.989 275.635C631.953 276.101 631.833 276.557 631.636 276.981C631.062 277.986 629.67 278.081 628.485 278.049C628.17 278.077 627.854 278.002 627.584 277.836C627.338 277.589 627.181 277.269 627.137 276.924C626.671 275.038 625.94 273.107 624.408 271.894C623.589 271.265 622.266 270.938 621.598 271.737C621.331 272.159 621.119 272.613 620.968 273.089C620.641 273.761 619.632 274.522 618.82 274.346C617.679 274.076 618.404 272.818 618.133 271.768Z" fill="#3F3D56"/>
<path opacity="0.1" d="M645.63 286.644C644.288 286.487 644.029 293.504 642.675 293.51C642.29 293.51 642.36 292.033 642.045 292.253C641.729 292.473 642.857 297.283 642.675 297.66C641.988 299.074 643.355 293.064 642.675 294.478C641.774 296.327 642.183 296.93 641.717 298.936C640.684 303.337 635.536 306.531 636.582 310.92C637.8 315.722 638.689 320.602 639.241 325.526C639.425 327.097 639.453 328.683 639.323 330.26C638.963 333.681 637.394 336.843 635.813 339.905C634.427 342.584 633.015 345.249 631.887 348.041C631.528 348.72 631.417 349.502 631.572 350.254C632.039 351.669 633.916 351.82 635.353 352.228C638.295 353.065 640.81 356.001 643.796 355.316C645.132 351.266 644.974 346.997 646.14 342.892C647.337 338.685 650.135 335.026 651.042 330.751C651.357 328.983 651.509 327.189 651.496 325.394L651.937 305.557C651.995 304.378 651.955 303.196 651.817 302.023C651.6 300.819 651.282 299.635 650.866 298.483L648.56 291.567C647.955 289.719 647.526 286.871 645.63 286.644Z" fill="black"/>
<path d="M646.588 286.645C645.243 286.487 643.89 286.412 642.536 286.418C642.14 286.352 641.734 286.436 641.397 286.653C641.06 286.871 640.817 287.206 640.715 287.594L638.655 291.825C637.69 293.644 636.928 295.563 636.38 297.547C635.347 301.948 636.494 306.519 637.54 310.908C638.758 315.71 639.647 320.59 640.199 325.514C640.383 327.085 640.411 328.671 640.281 330.248C639.921 333.668 638.352 336.831 636.771 339.893C635.385 342.571 633.973 345.237 632.845 348.029C632.483 348.707 632.372 349.49 632.53 350.242C632.997 351.657 634.874 351.808 636.311 352.216C639.254 353.052 641.768 355.989 644.754 355.303C646.09 351.254 645.932 346.985 647.098 342.879C648.295 338.673 651.093 335.014 652 330.738C652.315 328.97 652.467 327.177 652.454 325.381L652.889 305.545C652.953 304.366 652.913 303.183 652.769 302.011C652.557 300.806 652.241 299.622 651.824 298.471L649.518 291.555C648.913 289.719 648.484 286.871 646.588 286.645Z" fill="#3F3D56"/>
</g>
<defs>
<clipPath id="clip0">
<rect width="717" height="466" fill="white"/>
</clipPath>
</defs>
</svg>
