<svg width="24" height="24" viewBox="0 0 24 24" fill="none" xmlns="http://www.w3.org/2000/svg">
<path d="M0 0H24V16.2219H0V0Z" fill="#FFBE00" fill-opacity="0.45"/>
<path d="M0 0H24V16.2219H0V0ZM0 16.8885H24V24H0V16.8885Z" fill="#FFBE00" fill-opacity="0.45"/>
<path d="M12 13.1114C18.3818 13.1114 23.5552 10.9723 23.5552 8.33375C23.5552 5.69516 18.3818 3.55615 12 3.55615C5.61827 3.55615 0.444824 5.69516 0.444824 8.33375C0.444824 10.9723 5.61827 13.1114 12 13.1114Z" fill="#005C87"/>
<path d="M19.7696 5.79834V9.52954L19.0539 9.58074L18.9771 5.87514L19.7696 5.79834ZM17.904 10.4447V10.3679L18.3382 9.93381H18.415L18.8491 10.3679V10.4447L18.415 10.8789H18.3382L17.904 10.4447ZM16.959 10.4447V10.3679L17.3931 9.93381H17.4699L17.904 10.3679V10.4447L17.4699 10.8789H17.3931L16.959 10.4447ZM17.215 8.55887H17.343C17.4454 8.55887 17.5275 8.55247 17.5915 8.54074C17.6555 8.52901 17.7035 8.51407 17.7398 8.49701C17.776 8.47994 17.7995 8.46074 17.8112 8.44047C17.823 8.42021 17.8294 8.39994 17.8294 8.37861C17.8294 8.31354 17.8219 8.19941 17.807 8.03621C17.792 7.87301 17.7654 7.63727 17.728 7.33114L18.495 7.20314C18.5088 7.29914 18.5216 7.39941 18.5334 7.50714C18.5451 7.61487 18.5558 7.71727 18.5664 7.81647C18.5771 7.91567 18.5846 8.00527 18.5899 8.08741C18.5952 8.16954 18.5974 8.23247 18.5974 8.27621C18.5974 8.51087 18.5632 8.71034 18.495 8.87461C18.4267 9.03781 18.3339 9.17007 18.2166 9.27034C18.0992 9.37061 17.9638 9.44314 17.8102 9.48794C17.6502 9.53274 17.4859 9.55514 17.3195 9.55407H17.2171C17.1083 9.55407 17.0134 9.54021 16.9334 9.51354C16.8534 9.48687 16.783 9.43887 16.7211 9.37061C16.6838 9.86767 16.5152 10.2453 16.2176 10.5023C15.92 10.7594 15.5115 10.8949 14.9931 10.9087L14.8139 10.065C15.039 10.0138 15.2235 9.96047 15.3686 9.90394C15.5136 9.84741 15.6288 9.79087 15.7163 9.73327C15.8038 9.67567 15.8646 9.61807 15.9008 9.56261C15.9371 9.50607 15.9574 9.45274 15.9648 9.40154C15.9648 9.29914 15.9456 9.11247 15.9083 8.84154C15.871 8.57061 15.8123 8.22927 15.7344 7.81647L16.5014 7.61167C16.5462 7.82287 16.5867 7.99034 16.624 8.11514C16.6614 8.23887 16.7051 8.33487 16.7542 8.40101C16.8032 8.46714 16.864 8.50981 16.9355 8.52901C17.0048 8.54927 17.0987 8.55887 17.215 8.55887ZM15.1958 5.79834V9.52954L14.48 9.58074L14.4032 5.87514L15.1958 5.79834ZM13.9435 6.31034V6.38714L13.4838 6.84687H13.407L12.9472 6.38714V6.31034L13.407 5.85061H13.4838L13.9435 6.31034ZM12.64 9.55514C12.5686 9.55514 12.495 9.55087 12.4182 9.54234C12.3414 9.53381 12.2667 9.51567 12.1931 9.48901C12.1195 9.46127 12.0512 9.42287 11.9862 9.37167C11.919 9.31727 11.8624 9.24901 11.823 9.17221C11.7579 9.27461 11.6694 9.36421 11.5574 9.43994C11.4454 9.51674 11.312 9.55514 11.1584 9.55514C11.1008 9.55514 11.039 9.54874 10.975 9.53487C10.9099 9.52101 10.8459 9.49967 10.7808 9.47087C10.7158 9.44207 10.655 9.40581 10.5963 9.36101C10.5387 9.31727 10.4875 9.26181 10.4427 9.19781C10.3403 9.35141 10.2283 9.44847 10.1056 9.49114C9.98296 9.53381 9.8571 9.55514 9.72696 9.55514C9.53283 9.55514 9.38029 9.51994 9.26936 9.45061C9.15843 9.38021 9.0635 9.28847 8.98563 9.17221C8.8971 9.30127 8.78403 9.39834 8.64856 9.46127C8.51203 9.52421 8.33496 9.55621 8.11736 9.55621H8.01496C7.8987 9.55621 7.7995 9.54234 7.7163 9.51567C7.6331 9.48901 7.56163 9.44207 7.50403 9.37807V9.50607C7.50403 9.73754 7.45603 9.94661 7.36109 10.1322C7.26616 10.3178 7.1339 10.4757 6.9675 10.6047C6.8011 10.7338 6.60483 10.8351 6.38189 10.9066C6.15896 10.9781 5.91896 11.0143 5.66403 11.0143C5.16269 11.0143 4.78616 10.8981 4.53443 10.6645C4.2827 10.4309 4.15576 10.0959 4.15576 9.66074C4.15576 9.53487 4.17603 9.35354 4.21656 9.11674C4.25709 8.87994 4.34776 8.57594 4.4875 8.20474L5.10083 8.38394C5.0635 8.53754 5.03256 8.67301 5.0091 8.79034C4.98563 8.90767 4.96643 9.01007 4.95256 9.09754C4.93123 9.22554 4.92163 9.35461 4.92163 9.48367C4.92163 9.56261 4.9355 9.63407 4.96216 9.69807C4.9899 9.76314 5.03469 9.81861 5.09763 9.86661C5.16056 9.91461 5.24269 9.95194 5.34296 9.97861C5.44323 10.0063 5.56696 10.0191 5.71309 10.0191C5.88696 10.0191 6.04056 10.0042 6.17283 9.97541C6.30616 9.94661 6.41709 9.91034 6.50776 9.86554C6.59843 9.82074 6.66669 9.77167 6.71469 9.71727C6.7627 9.66287 6.78616 9.60954 6.78616 9.55834L6.70936 5.87834L7.50189 5.80154V8.02447C7.50189 8.13327 7.51363 8.22287 7.53816 8.29221C7.56163 8.36154 7.59683 8.41701 7.64269 8.45541C7.68856 8.49381 7.74189 8.52261 7.80376 8.53754C7.86563 8.55247 7.93496 8.56101 8.01283 8.56101H8.11523C8.2379 8.56101 8.33709 8.54927 8.41176 8.52474C8.48643 8.50127 8.54616 8.45754 8.59096 8.39461C8.6347 8.33167 8.66456 8.24421 8.68056 8.13114C8.69656 8.01914 8.70296 7.87194 8.70296 7.69167H9.39309V8.04687C9.39309 8.10981 9.39203 8.17061 9.39096 8.22821C9.38989 8.28581 9.38669 8.33701 9.38349 8.38181C9.4283 8.46074 9.48376 8.50981 9.55203 8.53007C9.6203 8.55034 9.68643 8.56101 9.75149 8.56101C9.82296 8.56101 9.8827 8.54821 9.9307 8.52261C9.9787 8.49701 10.0171 8.45114 10.048 8.38501C10.079 8.31887 10.1014 8.23034 10.1142 8.11941C10.127 8.00847 10.1344 7.86661 10.1344 7.69274H10.8246V8.06074C10.8246 8.12581 10.8235 8.18874 10.8224 8.24954C10.8214 8.31141 10.8182 8.36367 10.815 8.40847C10.8726 8.47354 10.9323 8.51514 10.9942 8.53327C11.056 8.55141 11.119 8.56101 11.183 8.56101C11.2448 8.56101 11.295 8.55034 11.3334 8.53007C11.3728 8.50981 11.4027 8.46607 11.4251 8.39994C11.4475 8.33381 11.4635 8.23674 11.4731 8.10874C11.4827 7.98074 11.488 7.80794 11.488 7.59034H12.1782V8.14287C12.1782 8.30287 12.2134 8.41274 12.2827 8.47247C12.3531 8.53221 12.4704 8.56207 12.6379 8.56207H12.7659C12.8683 8.56207 12.9504 8.55567 13.0134 8.54394C13.0763 8.53221 13.1254 8.51727 13.1616 8.50021C13.1979 8.48314 13.2214 8.46394 13.2331 8.44367C13.2448 8.42341 13.2512 8.40314 13.2512 8.38181C13.2512 8.31674 13.2438 8.20261 13.2288 8.03941C13.2139 7.87621 13.1872 7.64047 13.1499 7.33434L13.9168 7.20634C13.9307 7.30234 13.9435 7.40261 13.9552 7.51034C13.967 7.61807 13.9776 7.72047 13.9883 7.81967C13.999 7.91887 14.0064 8.00847 14.0118 8.09061C14.0171 8.17274 14.0192 8.23567 14.0192 8.27941C14.0192 8.51407 13.9851 8.71354 13.9168 8.87781C13.8486 9.04101 13.7558 9.17327 13.6384 9.27354C13.5211 9.37381 13.3856 9.44634 13.232 9.49114C13.072 9.53594 12.9078 9.55834 12.7414 9.55727H12.64V9.55514Z" fill="white"/>
<path d="M14.9705 19.4336L15.2777 18H10.9567L10.6665 19.4336H12.1055L11.6191 21.7579H13.2521L13.7375 19.4336H14.9705ZM10.4831 18H8.3412L7.0548 20.7851L6.83506 18H4.54706L3.11133 22.7819H4.68466L5.62013 19.696L5.83666 22.7819H7.05586L8.84893 19.4741L7.98813 22.7819H9.49213L10.4831 18ZM21.1359 18H19.6319L18.8404 20.9888L17.2447 18H15.8185L14.8233 22.7819H16.3284L16.898 19.9584L18.3412 22.7819H19.9167L21.1359 18Z" fill="#005C87"/>
<path d="M11.5497 22.0942L11.4004 22.7769H13.0356L13.1828 22.0942H11.5497Z" fill="#C21906"/>
</svg>
