<svg width="24" height="24" viewBox="0 0 24 24" fill="none" xmlns="http://www.w3.org/2000/svg">
<rect width="24" height="24" rx="5" fill="#9B2776" fill-opacity="0.15"/>
<path fill-rule="evenodd" clip-rule="evenodd" d="M10.5068 4.72969C6.27182 4.78267 3.06811 8.28615 3.27389 12.3687C3.47002 16.2584 6.72659 19.3774 10.7475 19.2606C14.816 19.1424 17.9753 15.7086 17.7894 11.6601C17.616 7.88288 14.5085 4.74423 10.5067 4.72969H10.5068ZM21.75 12.728C21.702 13.0525 21.6583 13.3778 21.6051 13.7015C20.9799 17.5028 17.937 20.71 14.1494 21.5045C10.8336 22.2 7.88274 21.4195 5.37255 19.1389C3.66905 17.5912 2.67343 15.6414 2.34814 13.3592C1.76902 9.29624 3.79006 5.3332 7.42819 3.38717C11.1751 1.38301 15.8641 2.07751 18.8692 5.07964C20.4282 6.63705 21.3546 8.5089 21.6698 10.6865C21.6974 10.8773 21.7233 11.0683 21.75 11.2592V12.728Z" fill="#9B2776"/>
<path fill-rule="evenodd" clip-rule="evenodd" d="M11.4956 17.3557C14.3969 17.3459 16.857 15.0553 16.8546 11.9972C16.8522 8.93726 14.3934 6.66023 11.5246 6.64782C8.61068 6.63522 6.15272 8.95195 6.14637 11.9867C6.14005 15.0222 8.5749 17.3393 11.4956 17.3557ZM10.5338 4.93522C14.4276 4.90853 17.6389 8.13388 17.6058 12.0761C17.5735 15.9406 14.4062 19.0832 10.4744 19.0667C6.58825 19.0502 3.40923 15.8666 3.45907 11.9049C3.50801 8.01009 6.704 4.91146 10.5338 4.93526" fill="url(#paint0_linear)"/>
<defs>
<linearGradient id="paint0_linear" x1="3.4585" y1="12.0009" x2="17.6061" y2="12.0009" gradientUnits="userSpaceOnUse">
<stop stop-color="#9E2373"/>
<stop offset="1" stop-color="#E8CAE1"/>
</linearGradient>
</defs>
</svg>
