<svg width="60" height="52" viewBox="0 0 60 52" fill="none" xmlns="http://www.w3.org/2000/svg">
<g clip-path="url(#clip0)">
<path d="M29.8383 0H30.1173C30.3462 0.0201477 30.5702 0.0779441 30.7803 0.171021C31.3726 0.469652 31.8835 0.907479 32.2693 1.44699C32.9162 2.32355 33.4604 3.27142 33.8913 4.272C34.4333 5.472 34.8813 6.71502 35.3273 7.95502C35.4033 8.18202 35.5003 8.402 35.5613 8.634C34.8733 8.734 34.1903 8.86 33.5063 8.978C33.4485 8.86316 33.3978 8.74495 33.3543 8.62399C33.0914 7.96912 32.7427 7.35207 32.3173 6.789C32.0088 6.36494 31.5904 6.03304 31.1073 5.82901C30.7494 5.69663 30.3569 5.69099 29.9953 5.81302C29.586 5.95927 29.2132 6.19224 28.9023 6.496C28.2931 7.09616 27.7718 7.77962 27.3543 8.526C26.8753 9.326 26.4863 10.179 26.0703 11.014C24.7283 13.744 23.386 16.4737 22.0433 19.203C21.8983 19.484 21.7743 19.775 21.6183 20.048C21.5653 20.027 21.5123 20.005 21.4613 19.979C20.7613 19.62 20.0233 19.313 19.3613 18.886C19.3873 18.7821 19.4248 18.6815 19.4733 18.586C20.2083 16.851 20.9583 15.122 21.7103 13.394C22.6183 11.319 23.5343 9.248 24.4853 7.194C24.9763 6.139 25.4713 5.08401 26.0123 4.05301C26.3068 3.46067 26.6349 2.88571 26.9953 2.33099C27.4075 1.66365 27.9256 1.06789 28.5293 0.567017C28.9037 0.258841 29.3574 0.0623237 29.8383 0Z" fill="url(#paint0_linear)"/>
<path d="M35.5657 11.7915C35.9864 11.7631 36.4083 11.7564 36.8297 11.7715C37.6987 13.9955 38.5197 16.2375 39.2747 18.5015C40.0417 20.7405 40.6787 23.022 41.1826 25.3345C41.4062 26.3553 41.5172 27.3975 41.5137 28.4425C41.5043 28.7259 41.4612 29.0072 41.3856 29.2805C41.3084 29.5273 41.1776 29.7538 41.0024 29.944C40.8273 30.1342 40.6122 30.2833 40.3727 30.3805C39.8768 30.5678 39.3432 30.6337 38.8167 30.5725C38.1733 30.5108 37.5384 30.3807 36.9226 30.1845C35.8386 29.838 34.7806 29.415 33.7566 28.9185C32.7916 28.4665 31.8566 27.9505 30.9006 27.4855C30.5236 27.2955 30.1376 27.1225 29.7646 26.9245C29.8238 26.8684 29.8892 26.8194 29.9596 26.7785C30.4629 26.4285 30.9629 26.0728 31.4596 25.7115C31.6806 25.5535 31.8917 25.3815 32.1187 25.2305C32.3017 25.3065 32.4686 25.4175 32.6456 25.5075C33.1825 25.8059 33.7379 26.0694 34.3086 26.2965C34.8067 26.5067 35.3401 26.6204 35.8806 26.6315C36.4325 26.6355 36.9638 26.4221 37.3596 26.0375C37.6583 25.6568 37.8328 25.1936 37.8596 24.7105C37.9153 24.0205 37.8925 23.3264 37.7916 22.6415C37.6159 21.3953 37.3557 20.1624 37.0127 18.9515C36.3617 16.5685 35.5436 14.2345 34.6716 11.9235L34.6587 11.8575C34.9587 11.8225 35.2627 11.8125 35.5657 11.7915Z" fill="url(#paint1_linear)"/>
<path d="M19.2297 12.3417C20.1197 12.1667 21.0127 12.0087 21.9047 11.8477C21.8672 11.9569 21.8231 12.0638 21.7727 12.1677C21.5187 12.7487 21.2627 13.3277 21.0127 13.9097C20.9979 13.9468 20.9762 13.9807 20.9487 14.0096C20.0601 14.2945 19.2179 14.7076 18.4487 15.2357C18.0212 15.5194 17.6702 15.9041 17.4267 16.3557C17.342 16.5315 17.2943 16.723 17.2867 16.9181C17.2792 17.1132 17.3118 17.3077 17.3827 17.4896C17.566 17.9121 17.8471 18.285 18.2027 18.5776C18.8193 19.0877 19.4972 19.5188 20.2207 19.8607C20.5907 20.0497 20.9777 20.2037 21.3437 20.4017C23.5937 21.5477 25.9287 22.5156 28.2437 23.5146C28.4097 23.5906 28.5847 23.6487 28.7487 23.7277C28.6042 23.833 28.4532 23.9292 28.2967 24.0156C27.7367 24.3516 27.1747 24.6826 26.6067 25.0046C26.4487 25.0866 26.3067 25.1917 26.1377 25.2587C25.9627 25.2017 25.7977 25.1166 25.6287 25.0436C22.0674 23.4263 18.534 21.748 15.0287 20.0087C14.1838 19.6373 13.3873 19.1645 12.6567 18.6006C12.2658 18.2988 11.9209 17.9417 11.6327 17.5406C11.3656 17.1759 11.2251 16.7337 11.2327 16.2817C11.268 15.8974 11.4306 15.536 11.6947 15.2546C12.0104 14.9127 12.3787 14.6234 12.7857 14.3976C13.6048 13.9454 14.4692 13.5807 15.3647 13.3096C16.6353 12.92 17.9254 12.5969 19.2297 12.3417Z" fill="url(#paint2_linear)"/>
<path d="M35.0735 9.14635C37.0956 8.79359 39.1406 8.58843 41.1925 8.53239C41.8055 8.52224 42.4186 8.54859 43.0285 8.61137C43.5712 8.65765 44.1074 8.76087 44.6285 8.91936C45.0784 9.05142 45.4966 9.27396 45.8575 9.57335C46.1145 9.79565 46.3009 10.0884 46.3935 10.4154C46.5022 10.9497 46.436 11.5047 46.2045 11.9983C45.8343 12.812 45.3449 13.5659 44.7525 14.2353C44.0389 15.0687 43.2747 15.8575 42.4645 16.5973C41.7158 17.2873 40.9492 17.958 40.1645 18.6094C40.0641 18.696 39.9556 18.7727 39.8405 18.8384C39.6245 18.2034 39.4075 17.5694 39.2015 16.9314C39.2765 16.8314 39.3865 16.7743 39.4655 16.6803C39.7763 16.3246 40.0506 15.9387 40.2845 15.5284C40.5802 15.0362 40.7399 14.4745 40.7475 13.9004C40.7399 13.4803 40.6054 13.0725 40.3615 12.7304C40.0533 12.3069 39.6396 11.9714 39.1615 11.7574C38.6542 11.5245 38.107 11.3908 37.5495 11.3634C36.5188 11.3063 35.4851 11.332 34.4585 11.4404C31.4809 11.7829 28.5246 12.291 25.6035 12.9624C25.9195 12.2844 26.2635 11.6183 26.5875 10.9433C26.6085 10.8723 26.6875 10.8624 26.7475 10.8504C28.2695 10.5454 29.7755 10.1674 31.2965 9.85936C32.5525 9.59336 33.8115 9.35835 35.0735 9.14635Z" fill="url(#paint3_linear)"/>
<path d="M36.0766 19.4911C36.2506 19.3731 36.4116 19.2372 36.5856 19.1182C36.6087 19.1471 36.6239 19.1816 36.6296 19.2182C36.7296 19.6182 36.8296 20.0132 36.9296 20.4102C36.9599 20.5117 36.9807 20.6158 36.9916 20.7212C36.5606 21.0722 36.1466 21.4432 35.7206 21.8012C34.0799 23.1892 32.3859 24.5115 30.6386 25.7682C28.806 27.0949 26.8974 28.3132 24.9226 29.4172C23.5045 30.2119 22.0255 30.8927 20.4996 31.4532C19.8833 31.6654 19.2465 31.8129 18.5996 31.8932C18.3846 31.9276 18.1673 31.9453 17.9496 31.9462C17.3163 31.988 16.6842 31.8493 16.1266 31.5462C15.7743 31.3273 15.4972 31.0059 15.3326 30.6252C15.1685 30.2385 15.089 29.8211 15.0996 29.4012C15.0996 29.2152 15.0996 29.0282 15.1076 28.8422C15.1523 28.4565 15.2164 28.0734 15.2996 27.6942C15.4546 27.0852 15.6606 26.4942 15.8636 25.8942C16.1483 25.0942 16.4676 24.3072 16.8216 23.5332C17.0866 22.9476 17.3813 22.3758 17.7046 21.8202C17.7393 21.8242 17.7731 21.8339 17.8046 21.8492C18.5046 22.1902 19.2046 22.5192 19.8986 22.8562C19.9919 22.8912 20.0806 22.9375 20.1626 22.9942C20.0936 23.1522 20.0036 23.3012 19.9456 23.4642C19.7833 23.8925 19.6474 24.3303 19.5386 24.7752C19.4306 25.1844 19.3764 25.6059 19.3776 26.0292C19.3518 26.4236 19.4414 26.8169 19.6356 27.1612C19.7849 27.3914 20.005 27.5668 20.2626 27.6612C20.6496 27.7873 21.0618 27.8161 21.4626 27.7452C22.0502 27.6467 22.6246 27.4813 23.1746 27.2522C24.2333 26.786 25.2679 26.267 26.2746 25.6972C28.1746 24.6372 30.0286 23.4902 31.8566 22.3112C33.2746 21.3932 34.6812 20.4531 36.0766 19.4911Z" fill="url(#paint4_linear)"/>
<path d="M25.5532 35.9689C25.7032 35.9119 25.8532 35.8419 26.0022 35.7969C26.0082 38.7969 26.0022 41.7888 26.0022 44.7838C26.0022 45.8128 26.0022 46.8418 26.0022 47.8708C25.8022 47.9708 25.5872 48.0388 25.3822 48.1268C24.9822 48.2878 24.5822 48.4518 24.1742 48.6118C24.0512 48.6674 23.9246 48.7145 23.7952 48.7528C23.7822 48.1138 23.7952 47.4739 23.7892 46.8339C23.7892 43.6892 23.7892 40.5446 23.7892 37.3999C23.7962 37.1579 23.7742 36.9159 23.8002 36.6759C24.3832 36.4339 24.9712 36.2079 25.5532 35.9689Z" fill="#F58221"/>
<path d="M43.6402 36.0668C43.8722 35.9808 44.0941 35.8669 44.3311 35.7979C44.3421 37.1459 44.3311 38.4978 44.3311 39.8428C44.3311 42.4428 44.3311 45.0428 44.3311 47.6428C45.2071 47.2258 46.0792 46.8008 46.9552 46.3838C47.3012 46.2088 47.6552 46.0568 48.0012 45.8738C48.0152 45.2208 48.0012 44.5668 48.0062 43.9138C48.0112 43.7028 47.9953 43.4908 48.0143 43.2798C48.4393 43.0718 48.8683 42.8728 49.2953 42.6698C49.41 42.6098 49.5282 42.5568 49.6493 42.5109C49.6633 43.5399 49.6492 44.5699 49.6562 45.5999C49.6634 46.007 49.5688 46.4094 49.3812 46.7708C49.1864 47.1312 48.9211 47.4489 48.6012 47.7048C48.7372 47.6478 48.8692 47.5808 49.0012 47.5178C51.4772 46.3352 53.9539 45.1531 56.4312 43.9718C57.6202 43.4088 58.8032 42.8349 59.9942 42.2719V43.0508C59.9822 43.1308 59.9672 43.2098 59.9552 43.2908C59.8577 43.9206 59.5192 44.4879 59.0112 44.8728C58.7475 45.0533 58.466 45.2065 58.1712 45.3298L48.8322 49.7898C48.7099 49.8561 48.5824 49.9126 48.4511 49.9589C48.4351 49.2459 48.4512 48.5308 48.4442 47.8168C48.2501 47.9448 48.0461 48.0572 47.8342 48.1528C46.6462 48.7242 45.4582 49.2949 44.2702 49.8649C44.0012 49.9865 43.7027 50.0276 43.4109 49.9834C43.119 49.9392 42.8462 49.8116 42.6252 49.6158C42.4648 49.4749 42.3363 49.3015 42.2484 49.1069C42.1604 48.9124 42.115 48.7013 42.1152 48.4878C42.1152 44.8378 42.1152 41.1878 42.1152 37.5378C42.1212 37.2498 42.1022 36.9618 42.1242 36.6748C42.6312 36.4688 43.1372 36.2708 43.6402 36.0668Z" fill="#F58221"/>
<path d="M12.9057 35.9911C13.0477 35.9381 13.1847 35.8721 13.3297 35.8291C13.3367 39.2351 13.3297 42.6421 13.3297 46.0481C13.3297 46.3011 13.3407 46.5551 13.3297 46.8081C13.3131 47.0568 13.2317 47.2968 13.0934 47.5042C12.9551 47.7115 12.7649 47.8791 12.5417 47.9901C11.4527 48.5231 10.3547 49.0381 9.2587 49.5581L4.7797 51.6821C4.32951 51.886 3.84187 51.9938 3.34772 51.999C2.85061 52.0059 2.35815 51.9027 1.90555 51.697C1.45296 51.4913 1.05142 51.1881 0.72971 50.8091C0.371754 50.3753 0.134463 49.8548 0.041722 49.3C-0.0338671 48.822 -0.00652567 48.3332 0.121953 47.8666C0.250431 47.3999 0.47708 46.9661 0.786717 46.5941C1.10651 46.2091 1.50424 45.8962 1.95371 45.676C4.23771 44.5954 6.52071 43.5137 8.80271 42.431C8.81271 43.031 8.80271 43.626 8.80271 44.223C8.80864 44.3595 8.80463 44.4962 8.79072 44.6321C6.74672 45.5961 4.70437 46.5628 2.6637 47.5321C2.44286 47.6301 2.24592 47.7747 2.0864 47.9562C1.92688 48.1376 1.8086 48.3516 1.73972 48.5831C1.67489 48.8076 1.67625 49.046 1.74366 49.2697C1.81107 49.4934 1.94167 49.6928 2.11972 49.8441C2.33883 50.0066 2.59726 50.1078 2.86844 50.1373C3.13963 50.1669 3.41378 50.1236 3.66272 50.0121C4.10072 49.8121 4.52671 49.595 4.96271 49.395C7.01071 48.4237 9.05903 47.4527 11.1077 46.4821C11.1167 45.0551 11.1077 43.6271 11.1077 42.1991V37.4541C11.1077 37.2031 11.0987 36.9541 11.1137 36.7001C11.7177 36.4621 12.3127 36.2291 12.9057 35.9911Z" fill="#F58221"/>
<path d="M46.0395 39.5489C46.2983 39.522 46.5592 39.5739 46.7881 39.6977C47.017 39.8215 47.2032 40.0115 47.3224 40.2429C47.4323 40.4566 47.4788 40.6973 47.4567 40.9366C47.4346 41.1759 47.3446 41.404 47.1974 41.594C47.047 41.7889 46.8439 41.9366 46.6121 42.0197C46.3803 42.1028 46.1295 42.1179 45.8894 42.0629C45.6543 42.0109 45.4388 41.8933 45.2679 41.7237C45.0969 41.5542 44.9775 41.3396 44.9235 41.1049C44.8755 40.9022 44.8786 40.6907 44.9325 40.4895C44.9865 40.2882 45.0895 40.1034 45.2325 39.9519C45.4444 39.7251 45.7308 39.5821 46.0395 39.5489Z" fill="#F58221"/>
<path d="M48.6995 39.549C48.9202 39.526 49.143 39.5598 49.347 39.6473C49.5509 39.7348 49.7291 39.8732 49.8644 40.049C50.0206 40.2547 50.1104 40.5029 50.1219 40.7609C50.1333 41.0189 50.0658 41.2743 49.9284 41.493C49.7942 41.7064 49.6002 41.8758 49.3707 41.98C49.1411 42.0843 48.8859 42.1188 48.6369 42.0794C48.3878 42.04 48.1559 41.9284 47.9697 41.7584C47.7835 41.5883 47.6512 41.3674 47.5894 41.123C47.5358 40.908 47.5395 40.6827 47.6 40.4695C47.6606 40.2564 47.7759 40.0627 47.9345 39.9079C48.1424 39.7064 48.4116 39.5802 48.6995 39.549Z" fill="#F58221"/>
<path d="M30.959 40.5215C31.9287 41.0665 32.8596 41.6779 33.745 42.3514C34.4213 42.8527 35.0268 43.443 35.545 44.1064C35.8405 44.4715 36.0319 44.9097 36.099 45.3745C36.11 45.6925 36.099 46.0105 36.104 46.3295C36.1106 46.4796 36.076 46.6286 36.004 46.7605C35.8122 47.0597 35.5329 47.2926 35.204 47.4275C33.594 48.1608 31.9843 48.8941 30.375 49.6274C29.8736 49.8534 29.3318 49.9758 28.782 49.9874C28.421 50.0031 28.0672 49.8833 27.79 49.6515C27.5181 49.3816 27.3562 49.0201 27.336 48.6375C27.3045 48.0688 27.3991 47.5002 27.613 46.9724C28.0015 46.0439 28.5422 45.1868 29.213 44.4364C29.7487 43.8176 30.3282 43.2382 30.947 42.7025C30.972 42.4825 30.947 42.2595 30.957 42.0385C30.958 41.5295 30.948 41.0215 30.959 40.5215ZM32.505 43.9934C31.6539 44.5447 30.8456 45.1595 30.087 45.8325C29.7448 46.1318 29.4455 46.4771 29.198 46.8585C29.0861 47.0255 29.0297 47.2235 29.037 47.4244C29.0425 47.4871 29.0644 47.5472 29.1003 47.5988C29.1363 47.6503 29.1851 47.6917 29.242 47.7185C29.3906 47.7784 29.5515 47.8017 29.711 47.7865C29.988 47.7722 30.2586 47.6978 30.504 47.5685C31.8127 46.9478 33.1217 46.3265 34.431 45.7045C34.2074 45.3831 33.9514 45.0855 33.667 44.8164C33.3393 44.4944 32.9913 44.1938 32.625 43.9165C32.583 43.9435 32.543 43.9664 32.505 43.9934Z" fill="#F58221"/>
<path d="M16.1493 41.9077C16.5443 41.6565 16.9954 41.5069 17.4623 41.4727C18.1365 41.4154 18.8131 41.5522 19.4123 41.8667C20.1387 42.2649 20.771 42.8146 21.2663 43.4787C21.6216 43.9218 21.9202 44.4076 22.1553 44.9247C22.3481 45.3488 22.4571 45.8063 22.4763 46.2718C22.4851 46.7974 22.328 47.3124 22.0273 47.7437C21.73 48.1617 21.3371 48.5025 20.8813 48.7377C18.8213 49.717 16.7603 50.6947 14.6983 51.6707C14.4613 51.7767 14.2313 51.9017 13.9893 51.9987C13.9893 51.2707 13.9893 50.5427 13.9893 49.8147C14.9973 49.3237 16.0153 48.8517 17.0273 48.3687L19.9383 46.9887C20.1823 46.8677 20.4383 46.7627 20.6733 46.6347C20.6291 46.3496 20.5477 46.0716 20.4313 45.8076C19.9553 46.0186 19.4903 46.2537 19.0173 46.4717C18.4212 46.7866 17.7928 47.0364 17.1432 47.2167C16.6614 47.3517 16.1527 47.3586 15.6673 47.2367C15.4436 47.1719 15.2404 47.0507 15.0768 46.8849C14.9133 46.7191 14.795 46.5142 14.7333 46.2897C14.6089 45.6363 14.5947 44.9668 14.6913 44.3087C14.7623 43.8306 14.9205 43.3695 15.1583 42.9486C15.4015 42.5281 15.7412 42.1714 16.1493 41.9077ZM16.6893 43.9077C16.4502 44.1115 16.295 44.3963 16.2533 44.7077C16.2114 44.9943 16.223 45.2863 16.2873 45.5688C16.4943 45.4878 16.6873 45.3767 16.8923 45.2867L18.7473 44.4077C18.9243 44.3187 19.1123 44.2497 19.2793 44.1437C19.115 43.9426 18.906 43.7825 18.6691 43.6761C18.4322 43.5697 18.1738 43.5199 17.9143 43.5307C17.4762 43.5168 17.0458 43.6483 16.6903 43.9047L16.6893 43.9077Z" fill="#F58221"/>
<path d="M40.5533 43.3099C40.6322 43.2702 40.7142 43.2368 40.7983 43.21C40.8123 44.242 40.7984 45.2739 40.8054 46.3099C40.8126 46.7921 40.6761 47.2655 40.4133 47.6699C40.1167 48.1225 39.7083 48.4907 39.2274 48.7389C36.9954 49.8009 34.762 50.8605 32.5273 51.9178C32.46 51.9528 32.3902 51.9826 32.3184 52.007C32.3184 51.282 32.3184 50.556 32.3184 49.83C32.3802 49.786 32.4475 49.75 32.5184 49.7229C34.7244 48.6742 36.9314 47.6269 39.1394 46.5809C39.1584 45.7159 39.1344 44.849 39.1504 43.981C39.6204 43.748 40.0863 43.5339 40.5533 43.3099Z" fill="#F58221"/>
</g>
<defs>
<linearGradient id="paint0_linear" x1="23.9297" y1="25.1201" x2="32.4974" y2="7.12733" gradientUnits="userSpaceOnUse">
<stop stop-color="#F7941A"/>
<stop offset="1" stop-color="#FECA06"/>
</linearGradient>
<linearGradient id="paint1_linear" x1="35.4042" y1="28.6363" x2="47.1108" y2="13.9852" gradientUnits="userSpaceOnUse">
<stop stop-color="#F7941A"/>
<stop offset="1" stop-color="#FECA06"/>
</linearGradient>
<linearGradient id="paint2_linear" x1="18.8695" y1="23.5689" x2="22.4502" y2="3.90192" gradientUnits="userSpaceOnUse">
<stop stop-color="#F7941A"/>
<stop offset="1" stop-color="#FECA06"/>
</linearGradient>
<linearGradient id="paint3_linear" x1="36.1074" y1="31.4452" x2="36.087" y2="12.3957" gradientUnits="userSpaceOnUse">
<stop stop-color="#17637C"/>
<stop offset="1" stop-color="#56C5D0"/>
</linearGradient>
<linearGradient id="paint4_linear" x1="26.067" y1="31.4914" x2="26.0369" y2="12.4437" gradientUnits="userSpaceOnUse">
<stop stop-color="#17637C"/>
<stop offset="1" stop-color="#56C5D0"/>
</linearGradient>
<clipPath id="clip0">
<rect width="60" height="52" fill="white"/>
</clipPath>
</defs>
</svg>
