<svg width="16" height="16" viewBox="0 0 16 16" fill="none" xmlns="http://www.w3.org/2000/svg">
<path d="M7.11133 9.33594H8.86133C8.99394 9.33594 9.12111 9.38862 9.21488 9.48238C9.30865 9.57615 9.36133 9.70333 9.36133 9.83594V11.8274C9.36133 11.96 9.30865 12.0872 9.21488 12.181C9.12111 12.2748 8.99394 12.3274 8.86133 12.3274H7.11133C6.97872 12.3274 6.85154 12.2748 6.75777 12.181C6.66401 12.0872 6.61133 11.96 6.61133 11.8274V9.83594C6.61133 9.70333 6.66401 9.57615 6.75777 9.48238C6.85154 9.38862 6.97872 9.33594 7.11133 9.33594V9.33594Z" fill="#57C5D0"/>
<path d="M12.8655 14.7504H3.13451C2.96684 14.7507 2.8059 14.6844 2.68697 14.5663C2.56803 14.4481 2.50079 14.2876 2.5 14.1199V4.61415C2.50066 4.44642 2.56784 4.2858 2.6868 4.16754C2.80575 4.04929 2.96677 3.98307 3.13451 3.9834H12.8652C13.033 3.983 13.1941 4.04919 13.3131 4.16745C13.4321 4.28571 13.4993 4.44638 13.5 4.61415V14.1199C13.4992 14.2876 13.432 14.4481 13.313 14.5663C13.1941 14.6844 13.0332 14.7507 12.8655 14.7504ZM3.13475 4.40364C3.07883 4.40351 3.02515 4.42558 2.98549 4.465C2.94583 4.50442 2.92345 4.55798 2.92325 4.61389V14.1196C2.92351 14.1755 2.94592 14.2291 2.98557 14.2685C3.02521 14.3079 3.07885 14.33 3.13475 14.3299H12.8655C12.9214 14.33 12.975 14.3079 13.0147 14.2685C13.0543 14.2291 13.0767 14.1755 13.077 14.1196V4.61415C13.0768 4.55824 13.0544 4.50468 13.0148 4.46526C12.9751 4.42583 12.9214 4.40377 12.8655 4.4039L3.13475 4.40364Z" fill="#5439AC"/>
<path d="M11.1988 5.58179C11.1421 5.58185 11.0876 5.55937 11.0473 5.51929C11.0071 5.47921 10.9845 5.42481 10.9843 5.36803V2.95003C10.9843 2.24778 10.3111 1.67653 9.48433 1.67653H7.76909C6.93784 1.67653 6.26909 2.25603 6.26909 2.73628V5.15303C6.26719 5.20862 6.24378 5.2613 6.20378 5.29996C6.16379 5.33861 6.11034 5.36021 6.05472 5.36021C5.9991 5.36021 5.94565 5.33861 5.90565 5.29996C5.86566 5.2613 5.84223 5.20862 5.84033 5.15303V2.73628C5.84033 2.03428 6.66534 1.24902 7.76984 1.24902H9.48509C10.5488 1.24902 11.4146 2.01204 11.4146 2.94904V5.36578C11.4148 5.39419 11.4094 5.42236 11.3986 5.44865C11.3879 5.47495 11.372 5.49885 11.3519 5.51895C11.3319 5.53905 11.308 5.55495 11.2817 5.56573C11.2554 5.57652 11.2272 5.58199 11.1988 5.58179Z" fill="#5439AC"/>
<path d="M10.1554 4.243C10.0986 4.24306 10.0441 4.22059 10.0039 4.18051C9.96367 4.14043 9.941 4.08603 9.94087 4.02925V2.95C9.94087 2.24775 9.26762 1.6765 8.44087 1.6765H6.72563C5.89813 1.6765 5.22563 2.24775 5.22563 2.95V4.02824C5.22373 4.08383 5.20032 4.13652 5.16032 4.17517C5.12033 4.21382 5.06688 4.23543 5.01126 4.23543C4.95564 4.23543 4.90219 4.21382 4.8622 4.17517C4.8222 4.13652 4.79877 4.08383 4.79688 4.02824V2.95C4.79688 2.01175 5.66263 1.25 6.72638 1.25H8.44163C9.50538 1.25 10.3711 2.013 10.3711 2.95V4.02824C10.3712 4.05655 10.3657 4.0846 10.3548 4.11075C10.344 4.1369 10.3281 4.16064 10.308 4.1806C10.288 4.20057 10.2641 4.21637 10.2379 4.22708C10.2117 4.23779 10.1837 4.24319 10.1554 4.243Z" fill="#5439AC"/>
<path d="M10.1666 13.4672H6.04157C5.87807 13.4671 5.72131 13.4022 5.60561 13.2867C5.48991 13.1712 5.42471 13.0145 5.42432 12.851V6.8145C5.42471 6.65088 5.49 6.49409 5.60587 6.37856C5.72173 6.26302 5.87869 6.19818 6.04231 6.19824H9.07857C9.10692 6.19822 9.135 6.20382 9.16118 6.21472C9.18736 6.22562 9.2111 6.24161 9.23106 6.26175L10.7226 7.76799C10.7622 7.80785 10.7845 7.86178 10.7846 7.918V12.851C10.7842 13.0146 10.7189 13.1714 10.603 13.2869C10.4872 13.4025 10.3302 13.4673 10.1666 13.4672ZM6.04157 6.62599C5.99155 6.62606 5.94359 6.64592 5.90817 6.68124C5.87276 6.71657 5.85277 6.76448 5.85257 6.8145V12.8512C5.85277 12.9013 5.87276 12.9492 5.90817 12.9845C5.94359 13.0198 5.99155 13.0397 6.04157 13.0398H10.1666C10.2166 13.0397 10.2645 13.0198 10.3 12.9845C10.3354 12.9492 10.3554 12.9013 10.3556 12.8512V8.00574L8.98882 6.62575L6.04157 6.62599Z" fill="#5439AC"/>
<path d="M8.85937 12.6511H6.92987C6.75955 12.6512 6.59617 12.5837 6.47557 12.4634C6.35497 12.3431 6.28702 12.1799 6.28662 12.0096V9.65785C6.28708 9.48758 6.35507 9.32444 6.47566 9.20422C6.59625 9.08401 6.7596 9.01653 6.92987 9.0166H8.85937C9.02969 9.01653 9.19308 9.08405 9.31367 9.20432C9.43427 9.32458 9.50223 9.48778 9.50262 9.6581V12.0099C9.50216 12.1801 9.43417 12.3433 9.31358 12.4635C9.19299 12.5837 9.02965 12.6512 8.85937 12.6511ZM6.92987 9.44411C6.87311 9.44411 6.81866 9.4666 6.77846 9.50667C6.73825 9.54673 6.71558 9.60109 6.71538 9.65785V12.0096C6.71558 12.0664 6.73825 12.1207 6.77846 12.1608C6.81866 12.2009 6.87311 12.2234 6.92987 12.2234H8.85937C8.91613 12.2234 8.97058 12.2009 9.01079 12.1608C9.05099 12.1207 9.07367 12.0664 9.07387 12.0096V9.65785C9.07367 9.60109 9.05099 9.54673 9.01079 9.50667C8.97058 9.4666 8.91613 9.44411 8.85937 9.44411H6.92987Z" fill="#5439AC"/>
<path d="M9.27478 10.5385H8.60628C8.4427 10.5386 8.28578 10.4738 8.16992 10.3583C8.05407 10.2428 7.98874 10.0861 7.98828 9.9225V9.25601C7.99018 9.20042 8.01359 9.14774 8.05359 9.10909C8.09358 9.07043 8.14703 9.04883 8.20265 9.04883C8.25827 9.04883 8.31172 9.07043 8.35172 9.10909C8.39171 9.14774 8.41514 9.20042 8.41704 9.25601V9.9225C8.41724 9.97252 8.43723 10.0204 8.47264 10.0558C8.50806 10.0911 8.55601 10.1109 8.60603 10.111H9.27454C9.33123 10.111 9.38559 10.1335 9.42568 10.1736C9.46576 10.2137 9.48828 10.2681 9.48828 10.3248C9.48828 10.3814 9.46576 10.4358 9.42568 10.4759C9.38559 10.516 9.33123 10.5385 9.27454 10.5385H9.27478Z" fill="#5439AC"/>
<path d="M8.20277 12.644C8.14599 12.644 8.09152 12.6215 8.0513 12.5815C8.01108 12.5414 7.98841 12.487 7.98828 12.4302V11.7637C7.98868 11.6001 8.05397 11.4433 8.16983 11.3278C8.28569 11.2122 8.44266 11.1474 8.60628 11.1475H9.27478C9.33147 11.1475 9.38583 11.17 9.42592 11.2101C9.46601 11.2502 9.48853 11.3045 9.48853 11.3612C9.48853 11.4179 9.46601 11.4723 9.42592 11.5124C9.38583 11.5524 9.33147 11.575 9.27478 11.575H8.60628C8.55626 11.575 8.5083 11.5949 8.47289 11.6302C8.43747 11.6655 8.41748 11.7134 8.41728 11.7635V12.43C8.41725 12.4581 8.41168 12.486 8.40088 12.5119C8.39008 12.5379 8.37427 12.5615 8.35436 12.5814C8.33444 12.6013 8.3108 12.617 8.28479 12.6277C8.25878 12.6385 8.23091 12.644 8.20277 12.644Z" fill="#5439AC"/>
<path d="M7.37302 10.7467H6.5155C6.45881 10.7467 6.40445 10.7242 6.36436 10.6841C6.32428 10.6441 6.30176 10.5897 6.30176 10.533C6.30176 10.4763 6.32428 10.4219 6.36436 10.3819C6.40445 10.3418 6.45881 10.3192 6.5155 10.3192H7.15877V9.89175C7.16067 9.83617 7.18408 9.78348 7.22407 9.74483C7.26407 9.70617 7.31752 9.68457 7.37314 9.68457C7.42876 9.68457 7.4822 9.70617 7.5222 9.74483C7.5622 9.78348 7.58561 9.83617 7.58751 9.89175V10.533C7.58738 10.5898 7.56471 10.6442 7.52449 10.6843C7.48427 10.7243 7.42979 10.7468 7.37302 10.7467Z" fill="#5439AC"/>
<path d="M7.37302 11.5877H6.5155C6.45881 11.5877 6.40445 11.5651 6.36436 11.5251C6.32428 11.485 6.30176 11.4306 6.30176 11.3739C6.30176 11.3172 6.32428 11.2628 6.36436 11.2228C6.40445 11.1827 6.45881 11.1602 6.5155 11.1602H7.37302C7.42971 11.1602 7.48407 11.1827 7.52415 11.2228C7.56424 11.2628 7.58676 11.3172 7.58676 11.3739C7.58676 11.4306 7.56424 11.485 7.52415 11.5251C7.48407 11.5651 7.42971 11.5877 7.37302 11.5877Z" fill="#5439AC"/>
</svg>
